<svg width="739" height="163" viewBox="0 0 739 163" fill="none" xmlns="http://www.w3.org/2000/svg">
<rect width="739" height="163" fill="#F5F5F5"/>
<rect width="739" height="163" fill="white"/>
<path d="M666.606 89.608C666.606 91.272 666.702 92.648 666.894 93.736C667.15 94.76 667.63 95.88 668.334 97.096V97.288C669.166 97.736 670.19 97.96 671.406 97.96C672.75 97.96 673.87 97.352 674.766 96.136C675.662 94.856 676.11 92.968 676.11 90.472V89.512C677.518 89.64 678.574 89.704 679.278 89.704L682.638 89.608C683.342 89.544 684.43 89.512 685.902 89.512C686.99 89.512 688.43 89.672 690.222 89.992L690.126 91.624L692.142 91.912C692.142 98.824 691.374 103.784 689.838 106.792C688.366 109.8 686.446 111.592 684.078 112.168C681.774 112.808 678.222 113.128 673.422 113.128C669.582 113.128 666.51 112.84 664.206 112.264C661.966 111.752 660.046 110.536 658.446 108.616C655.502 106.184 653.326 102.696 651.918 98.152C650.51 93.608 649.806 88.68 649.806 83.368C649.806 77.16 650.542 72.072 652.014 68.104C653.358 65.032 655.694 62.696 659.022 61.096C662.35 59.432 666.062 58.6 670.158 58.6C675.086 58.6 679.214 59.656 682.542 61.768C685.934 63.88 688.43 66.728 690.03 70.312C691.694 73.832 692.526 77.704 692.526 81.928C692.526 82.312 692.43 83.944 692.238 86.824C691.022 87.144 687.79 87.432 682.542 87.688C677.358 87.944 672.75 88.072 668.718 88.072C667.758 88.072 667.054 88.04 666.606 87.976V89.608ZM663.726 84.904C664.494 85.096 666.702 85.192 670.35 85.192C673.87 85.192 677.678 85.096 681.774 84.904C685.87 84.648 688.43 84.392 689.454 84.136C689.582 82.216 689.646 80.84 689.646 80.008C689.646 73.608 688.206 68.616 685.326 65.032C682.51 61.384 677.454 59.56 670.158 59.56C666.318 59.56 662.766 60.36 659.502 61.96C656.302 63.496 654.094 65.64 652.878 68.392C651.406 72.36 650.67 77.672 650.67 84.328C650.67 90.984 651.79 96.744 654.03 101.608C656.27 106.472 659.758 109.256 664.494 109.96L668.718 110.056C670.894 110.184 672.59 110.248 673.806 110.248C676.814 110.248 679.374 109.928 681.486 109.288C683.662 108.648 685.358 107.464 686.574 105.736C687.406 105.032 687.982 103.56 688.302 101.32C688.622 99.016 688.942 95.496 689.262 90.76C688.302 90.568 687.054 90.472 685.518 90.472L681.774 90.568C681.006 90.632 679.95 90.664 678.606 90.664C677.838 90.664 677.358 90.632 677.166 90.568V91.336C677.166 93.832 676.59 95.72 675.438 97C674.35 98.28 673.006 98.92 671.406 98.92C666.478 98.92 663.918 94.824 663.726 86.632V84.904ZM679.086 77.32C679.086 77.512 678.862 77.608 678.414 77.608C678.094 77.608 677.454 77.576 676.494 77.512C675.534 77.448 674.382 77.416 673.038 77.416L666.798 77.512C665.582 77.512 664.782 77.448 664.398 77.32C664.014 77.192 663.822 76.904 663.822 76.456C663.822 71.528 666.542 69.064 671.982 69.064C673.198 69.064 674.318 69.384 675.342 70.024C676.494 70.6 677.39 71.464 678.03 72.616C678.734 73.768 679.086 74.984 679.086 76.264V77.32ZM676.782 72.712C675.95 72.2 674.99 71.944 673.902 71.944C671.662 71.944 670.03 72.328 669.006 73.096C668.046 73.864 667.374 75.016 666.99 76.552L668.814 76.456H673.038L677.166 76.552L678.126 76.648V76.264C678.126 74.792 677.71 73.64 676.878 72.808L676.782 72.712Z" fill="#ADADAD"/>
<path fill-rule="evenodd" clip-rule="evenodd" d="M663.726 84.904C664.494 85.096 666.702 85.192 670.35 85.192C673.87 85.192 677.678 85.096 681.774 84.904C685.87 84.648 688.43 84.392 689.454 84.136C689.582 82.216 689.646 80.84 689.646 80.008C689.646 73.608 688.206 68.616 685.326 65.032C682.51 61.384 677.454 59.56 670.158 59.56C666.318 59.56 662.766 60.36 659.502 61.96C656.302 63.496 654.094 65.64 652.878 68.392C651.406 72.36 650.67 77.672 650.67 84.328C650.67 90.984 651.79 96.744 654.03 101.608C656.27 106.472 659.758 109.256 664.494 109.96L668.718 110.056C670.894 110.184 672.59 110.248 673.806 110.248C676.814 110.248 679.374 109.928 681.486 109.288C683.662 108.648 685.358 107.464 686.574 105.736C687.406 105.032 687.982 103.56 688.302 101.32C688.622 99.016 688.942 95.496 689.262 90.76C688.302 90.568 687.054 90.472 685.518 90.472L681.774 90.568C681.006 90.632 679.95 90.664 678.606 90.664C677.838 90.664 677.358 90.632 677.166 90.568V91.336C677.166 93.832 676.59 95.72 675.438 97C674.35 98.28 673.006 98.92 671.406 98.92C666.478 98.92 663.918 94.824 663.726 86.632V84.904ZM678.414 77.608C678.862 77.608 679.086 77.512 679.086 77.32V76.264C679.086 74.984 678.734 73.768 678.03 72.616C677.39 71.464 676.494 70.6 675.342 70.024C674.318 69.384 673.198 69.064 671.982 69.064C666.542 69.064 663.822 71.528 663.822 76.456C663.822 76.904 664.014 77.192 664.398 77.32C664.782 77.448 665.582 77.512 666.798 77.512L673.038 77.416C674.382 77.416 675.534 77.448 676.494 77.512C677.454 77.576 678.094 77.608 678.414 77.608Z" fill="#ADADAD"/>
<path d="M649.499 78.664C647.259 79.048 644.795 79.24 642.107 79.24C639.867 79.24 637.307 78.984 634.427 78.472L634.523 77.704C634.523 77.32 634.363 77.064 634.043 76.936C633.723 76.744 633.403 76.648 633.083 76.648C632.763 76.584 632.571 76.552 632.507 76.552L632.603 75.784C632.603 74.76 632.283 74.056 631.643 73.672C631.003 73.224 630.171 72.904 629.147 72.712C627.995 73.032 627.099 73.512 626.459 74.152C625.819 74.792 625.499 75.496 625.499 76.264C625.499 77.48 626.139 78.344 627.419 78.856L627.227 78.76C634.395 79.912 639.931 81.768 643.835 84.328C647.739 86.888 649.691 90.952 649.691 96.52C649.691 102.408 647.771 106.696 643.931 109.384C640.091 112.072 635.035 113.416 628.763 113.416C624.283 113.416 620.283 112.552 616.763 110.824C613.243 109.16 610.491 106.888 608.507 104.008C606.587 101.064 605.627 97.864 605.627 94.408V93.064C607.611 92.808 609.787 92.68 612.155 92.68L617.147 92.776C618.171 92.84 619.675 92.872 621.659 92.872C621.659 93.384 621.819 94.024 622.139 94.792H623.579C623.579 97.032 625.019 98.152 627.899 98.152C630.523 98.152 631.835 96.872 631.835 94.312C631.835 93.352 631.323 92.68 630.299 92.296C629.339 91.848 627.771 91.4 625.595 90.952C622.843 90.44 620.731 89.864 619.259 89.224H619.355C615.451 87.88 612.347 85.704 610.043 82.696C607.739 79.624 606.587 76.456 606.587 73.192C606.587 70.184 607.547 67.336 609.467 64.648C611.451 61.96 614.043 60.136 617.243 59.176C619.419 58.536 622.747 58.216 627.227 58.216C631.515 58.216 635.035 58.536 637.787 59.176C640.539 59.816 642.779 61.224 644.507 63.4C648.347 66.536 650.267 71.304 650.267 77.704L649.499 78.664ZM639.035 60.328C635.579 59.56 631.643 59.176 627.227 59.176C614.107 59.176 607.547 63.848 607.547 73.192C607.547 76.072 608.411 78.728 610.139 81.16C611.867 83.528 614.395 85.288 617.723 86.44C619.259 87.144 621.691 87.816 625.019 88.456C627.771 89.096 629.755 89.736 630.971 90.376C632.187 91.016 632.795 92.104 632.795 93.64C632.795 95.56 632.379 96.968 631.547 97.864C630.715 98.696 629.499 99.112 627.899 99.112C626.107 99.112 624.507 98.632 623.099 97.672C621.691 96.712 620.923 95.432 620.795 93.832L609.755 93.736C608.283 93.736 607.227 93.8 606.587 93.928V94.408C606.587 99.336 608.443 103.272 612.155 106.216C615.867 109.096 620.763 110.536 626.843 110.536C632.667 110.536 637.435 109.352 641.147 106.984C644.859 104.552 646.715 100.424 646.715 94.6C646.715 91.272 645.947 88.616 644.411 86.632C642.875 84.648 640.731 83.176 637.979 82.216C635.291 81.256 631.675 80.424 627.131 79.72C625.659 79.208 624.539 78.472 623.771 77.512C623.003 76.552 622.619 75.528 622.619 74.44C622.619 73.352 623.035 72.328 623.867 71.368C624.763 70.344 625.979 69.832 627.515 69.832C628.987 69.832 630.395 70.376 631.739 71.464C633.083 72.552 633.755 73.736 633.755 75.016C633.755 75.4 633.723 75.656 633.659 75.784C635.643 76.168 637.819 76.36 640.187 76.36C642.811 76.36 645.211 76.168 647.387 75.784C647.387 72.136 646.715 68.968 645.371 66.28C644.027 63.528 641.915 61.544 639.035 60.328Z" fill="#ADADAD"/>
<path d="M639.035 60.328C635.579 59.56 631.643 59.176 627.227 59.176C614.107 59.176 607.547 63.848 607.547 73.192C607.547 76.072 608.411 78.728 610.139 81.16C611.867 83.528 614.395 85.288 617.723 86.44C619.259 87.144 621.691 87.816 625.019 88.456C627.771 89.096 629.755 89.736 630.971 90.376C632.187 91.016 632.795 92.104 632.795 93.64C632.795 95.56 632.379 96.968 631.547 97.864C630.715 98.696 629.499 99.112 627.899 99.112C626.107 99.112 624.507 98.632 623.099 97.672C621.691 96.712 620.923 95.432 620.795 93.832L609.755 93.736C608.283 93.736 607.227 93.8 606.587 93.928V94.408C606.587 99.336 608.443 103.272 612.155 106.216C615.867 109.096 620.763 110.536 626.843 110.536C632.667 110.536 637.435 109.352 641.147 106.984C644.859 104.552 646.715 100.424 646.715 94.6C646.715 91.272 645.947 88.616 644.411 86.632C642.875 84.648 640.731 83.176 637.979 82.216C635.291 81.256 631.675 80.424 627.131 79.72C625.659 79.208 624.539 78.472 623.771 77.512C623.003 76.552 622.619 75.528 622.619 74.44C622.619 73.352 623.035 72.328 623.867 71.368C624.763 70.344 625.979 69.832 627.515 69.832C628.987 69.832 630.395 70.376 631.739 71.464C633.083 72.552 633.755 73.736 633.755 75.016C633.755 75.4 633.723 75.656 633.659 75.784C635.643 76.168 637.819 76.36 640.187 76.36C642.811 76.36 645.211 76.168 647.387 75.784C647.387 72.136 646.715 68.968 645.371 66.28C644.027 63.528 641.915 61.544 639.035 60.328Z" fill="#ADADAD"/>
<path d="M598.824 65.896C601.64 68.2 603.528 71.336 604.488 75.304C605.448 79.208 606.088 84.2 606.408 90.28C606.408 95.272 605.704 99.656 604.296 103.432C602.888 107.144 600.776 109.544 597.96 110.632C595.528 111.592 592.552 112.072 589.032 112.072C587.368 112.072 585.736 111.912 584.136 111.592C582.536 111.336 581.224 110.984 580.2 110.536L580.392 120.232C580.392 121.704 580.328 123.528 580.2 125.704L579.912 129.352V130.408C579.912 130.728 579.112 131.048 577.512 131.368C575.976 131.688 574.28 131.848 572.424 131.848C569.736 131.848 567.56 131.688 565.896 131.368V129.736L563.976 129.448V122.248C563.976 116.36 563.848 107.848 563.592 96.712C563.528 93.896 563.464 90.504 563.4 86.536C563.336 82.504 563.304 77.896 563.304 72.712C563.304 66.824 563.336 62.632 563.4 60.136L568.872 60.04C570.088 59.976 571.848 59.944 574.152 59.944C575.496 59.944 576.52 60.072 577.224 60.328C577.992 60.584 578.376 61.096 578.376 61.864V62.056C579.272 62.056 579.72 62.152 579.72 62.344C581.384 60.936 583.496 60.232 586.056 60.232C591.368 60.232 595.624 62.12 598.824 65.896ZM595.752 107.848C598.44 106.888 600.392 104.616 601.608 101.032C602.888 97.448 603.528 93.224 603.528 88.36C603.336 82.664 602.856 77.96 602.088 74.248C601.32 70.536 599.656 67.432 597.096 64.936C594.536 62.44 590.696 61.192 585.576 61.192C582.184 61.192 579.816 62.6 578.472 65.416C578.28 65.672 578.152 65.8 578.088 65.8C577.832 65.8 577.576 65.064 577.32 63.592C577.128 62.12 577.128 61.32 577.32 61.192C576.68 61.064 575.752 61 574.536 61L564.36 61.096C564.296 63.4 564.264 66.92 564.264 71.656C564.264 76.904 564.296 81.544 564.36 85.576C564.424 89.608 564.488 93 564.552 95.752C564.808 107.272 564.936 116.104 564.936 122.248V128.584C566.28 128.84 568.136 128.968 570.504 128.968C572.104 128.968 573.576 128.904 574.92 128.776C576.328 128.712 577.032 128.616 577.032 128.488V127.432L577.224 124.072C577.352 122.856 577.416 120.936 577.416 118.312V113.896C577.416 111.08 577.384 108.68 577.32 106.696C577.448 107.4 578.472 108.008 580.392 108.52C582.312 108.968 584.552 109.192 587.112 109.192C590.696 109.192 593.576 108.744 595.752 107.848ZM583.848 73.096C586.472 73.096 588.584 74.344 590.184 76.84C591.784 79.336 592.584 82.28 592.584 85.672C592.584 88.168 592.36 90.024 591.912 91.24C591.208 95.784 588.168 98.056 582.792 98.056C580.872 98.056 579.528 97.832 578.76 97.384C577.992 96.872 577.48 95.912 577.224 94.504C577.032 93.096 576.936 90.6 576.936 87.016C576.936 83.816 577.064 81.256 577.32 79.336C577.64 77.416 578.28 75.912 579.24 74.824C580.264 73.672 581.8 73.096 583.848 73.096ZM591.624 85.672C591.624 83.112 591.144 80.872 590.184 78.952C589.288 76.968 587.816 75.976 585.768 75.976C583.976 75.976 582.632 76.52 581.736 77.608C580.904 78.632 580.36 80.04 580.104 81.832C579.912 83.56 579.816 85.928 579.816 88.936C579.816 90.792 579.848 92.424 579.912 93.832C579.976 95.176 580.104 96.2 580.296 96.904C580.68 97.032 581.128 97.096 581.64 97.096C582.216 97.096 582.6 97.096 582.792 97.096C587.656 97.096 590.376 95.112 590.952 91.144L591.048 90.952C591.432 90.056 591.624 89 591.624 87.784C591.624 86.568 591.624 85.864 591.624 85.672Z" fill="#ADADAD"/>
<path fill-rule="evenodd" clip-rule="evenodd" d="M595.752 107.848C598.44 106.888 600.392 104.616 601.608 101.032C602.888 97.448 603.528 93.224 603.528 88.36C603.336 82.664 602.856 77.96 602.088 74.248C601.32 70.536 599.656 67.432 597.096 64.936C594.536 62.44 590.696 61.192 585.576 61.192C582.184 61.192 579.816 62.6 578.472 65.416C578.28 65.672 578.152 65.8 578.088 65.8C577.832 65.8 577.576 65.064 577.32 63.592C577.128 62.12 577.128 61.32 577.32 61.192C576.68 61.064 575.752 61 574.536 61L564.36 61.096C564.296 63.4 564.264 66.92 564.264 71.656C564.264 76.904 564.296 81.544 564.36 85.576C564.424 89.608 564.488 93 564.552 95.752C564.808 107.272 564.936 116.104 564.936 122.248V128.584C566.28 128.84 568.136 128.968 570.504 128.968C572.104 128.968 573.576 128.904 574.92 128.776C576.328 128.712 577.032 128.616 577.032 128.488V127.432L577.224 124.072C577.352 122.856 577.416 120.936 577.416 118.312V113.896C577.416 111.08 577.384 108.68 577.32 106.696C577.448 107.4 578.472 108.008 580.392 108.52C582.312 108.968 584.552 109.192 587.112 109.192C590.696 109.192 593.576 108.744 595.752 107.848ZM590.184 76.84C588.584 74.344 586.472 73.096 583.848 73.096C581.8 73.096 580.264 73.672 579.24 74.824C578.28 75.912 577.64 77.416 577.32 79.336C577.064 81.256 576.936 83.816 576.936 87.016C576.936 90.6 577.032 93.096 577.224 94.504C577.48 95.912 577.992 96.872 578.76 97.384C579.528 97.832 580.872 98.056 582.792 98.056C588.168 98.056 591.208 95.784 591.912 91.24C592.36 90.024 592.584 88.168 592.584 85.672C592.584 82.28 591.784 79.336 590.184 76.84Z" fill="#ADADAD"/>
<path d="M560.368 63.016C560.496 64.04 560.56 64.84 560.56 65.416V66.376C560.496 68.104 560.464 70.6 560.464 73.864L560.56 84.616C560.624 87.048 560.656 90.664 560.656 95.464C560.656 99.24 560.56 103.112 560.368 107.08V107.752C560.368 109.096 560.272 110.088 560.08 110.728C559.888 111.368 559.312 111.784 558.352 111.976H557.008C556.112 111.976 554.96 111.912 553.552 111.784L550.768 111.688C550.32 111.688 549.648 111.752 548.752 111.88L546.64 111.976C545.616 111.72 544.944 111.08 544.624 110.056C543.792 109.736 543.28 109.384 543.088 109C539.76 111.048 536.464 112.072 533.2 112.072C529.808 112.072 526.8 110.6 524.176 107.656C521.616 104.712 519.632 101.032 518.224 96.616C516.88 92.136 516.208 87.752 516.208 83.464C516.208 78.6 517.04 74.44 518.704 70.984C520.368 67.464 522.64 64.808 525.52 63.016C528.464 61.224 531.76 60.328 535.408 60.328C537.2 60.328 538.576 60.456 539.536 60.712C540.56 60.968 541.488 61.608 542.32 62.632C542.384 62.312 542.448 61.8 542.512 61.096C542.576 60.392 542.736 59.944 542.992 59.752C543.248 59.56 543.664 59.464 544.24 59.464C544.816 59.464 545.328 59.528 545.776 59.656C546.288 59.72 546.768 59.752 547.216 59.752H548.08C549.744 59.752 552.912 59.912 557.584 60.232L558.448 61.096L558.544 62.152H559.504L560.368 63.016ZM547.024 60.712L544.432 60.616C543.792 60.616 543.408 61.032 543.28 61.864C543.152 62.632 543.088 63.752 543.088 65.224V65.704C542.512 64.296 541.776 63.272 540.88 62.632C539.984 61.992 538.992 61.608 537.904 61.48C536.816 61.352 535.28 61.288 533.296 61.288C530.288 61.352 527.536 62.376 525.04 64.36C522.608 66.28 520.688 68.904 519.28 72.232C517.872 75.56 517.168 79.304 517.168 83.464C517.168 87.24 517.68 91.112 518.704 95.08C519.728 99.048 521.296 102.408 523.408 105.16C525.584 107.848 528.208 109.192 531.28 109.192C533.456 109.192 535.696 108.68 538 107.656C540.368 106.568 542.352 105.224 543.952 103.624C543.952 104.008 543.888 104.552 543.76 105.256C543.632 105.896 543.568 106.472 543.568 106.984C543.568 108.072 543.952 108.776 544.72 109.096C545.232 109.096 545.936 109.032 546.832 108.904L548.848 108.808L552.016 108.904C553.424 109.032 554.448 109.096 555.088 109.096H556.24C556.752 108.968 557.072 108.712 557.2 108.328C557.392 107.88 557.488 107.272 557.488 106.504V105.16C557.744 101.384 557.872 97.192 557.872 92.584L557.776 82.024C557.648 77.288 557.584 73.704 557.584 71.272C557.584 68.264 557.616 65.992 557.68 64.456V63.496C557.68 62.984 557.616 62.216 557.488 61.192C555.696 61.064 552.56 60.904 548.08 60.712H547.024ZM538.48 74.152C540.08 74.152 541.2 74.312 541.84 74.632C542.544 74.888 542.992 75.496 543.184 76.456C543.376 77.352 543.472 78.888 543.472 81.064V86.344C543.472 88.648 543.344 90.44 543.088 91.72C542.896 93 542.352 93.992 541.456 94.696C540.624 95.4 539.312 95.752 537.52 95.752C534.896 95.752 532.816 94.76 531.28 92.776C529.744 90.792 528.976 88.328 528.976 85.384C528.976 83.272 529.168 81.576 529.552 80.296C529.936 78.568 530.896 77.128 532.432 75.976C533.968 74.76 535.984 74.152 538.48 74.152ZM532.432 82.504C532.048 83.784 531.856 85.384 531.856 87.304C531.856 92.296 533.744 94.792 537.52 94.792C539.12 94.792 540.272 94.44 540.976 93.736C541.68 93.032 542.096 92.072 542.224 90.856C542.416 89.64 542.512 87.784 542.512 85.288V82.792L542.608 79.912C542.608 78.888 542.448 78.152 542.128 77.704C541.872 77.256 541.296 77.032 540.4 77.032C538.16 77.032 536.368 77.544 535.024 78.568C533.68 79.592 532.816 80.872 532.432 82.408V82.504Z" fill="#ADADAD"/>
<path fill-rule="evenodd" clip-rule="evenodd" d="M547.024 60.712L544.432 60.616C543.792 60.616 543.408 61.032 543.28 61.864C543.152 62.632 543.088 63.752 543.088 65.224V65.704C542.512 64.296 541.776 63.272 540.88 62.632C539.984 61.992 538.992 61.608 537.904 61.48C536.816 61.352 535.28 61.288 533.296 61.288C530.288 61.352 527.536 62.376 525.04 64.36C522.608 66.28 520.688 68.904 519.28 72.232C517.872 75.56 517.168 79.304 517.168 83.464C517.168 87.24 517.68 91.112 518.704 95.08C519.728 99.048 521.296 102.408 523.408 105.16C525.584 107.848 528.208 109.192 531.28 109.192C533.456 109.192 535.696 108.68 538 107.656C540.368 106.568 542.352 105.224 543.952 103.624C543.952 104.008 543.888 104.552 543.76 105.256C543.632 105.896 543.568 106.472 543.568 106.984C543.568 108.072 543.952 108.776 544.72 109.096C545.232 109.096 545.936 109.032 546.832 108.904L548.848 108.808L552.016 108.904C553.424 109.032 554.448 109.096 555.088 109.096H556.24C556.752 108.968 557.072 108.712 557.2 108.328C557.392 107.88 557.488 107.272 557.488 106.504V105.16C557.744 101.384 557.872 97.192 557.872 92.584L557.776 82.024C557.648 77.288 557.584 73.704 557.584 71.272C557.584 68.264 557.616 65.992 557.68 64.456V63.496C557.68 62.984 557.616 62.216 557.488 61.192C555.696 61.064 552.56 60.904 548.08 60.712H547.024ZM541.84 74.632C541.2 74.312 540.08 74.152 538.48 74.152C535.984 74.152 533.968 74.76 532.432 75.976C530.896 77.128 529.936 78.568 529.552 80.296C529.168 81.576 528.976 83.272 528.976 85.384C528.976 88.328 529.744 90.792 531.28 92.776C532.816 94.76 534.896 95.752 537.52 95.752C539.312 95.752 540.624 95.4 541.456 94.696C542.352 93.992 542.896 93 543.088 91.72C543.344 90.44 543.472 88.648 543.472 86.344V81.064C543.472 78.888 543.376 77.352 543.184 76.456C542.992 75.496 542.544 74.888 541.84 74.632Z" fill="#ADADAD"/>
<path d="M491.037 63.4C494.173 61.48 497.565 60.52 501.213 60.52C503.261 60.52 505.245 60.872 507.165 61.576C509.085 62.28 510.525 63.368 511.485 64.84L512.637 65.704C514.301 66.984 515.133 72.36 515.133 81.832C515.133 84.328 515.069 88.072 514.941 93.064C514.813 97.928 514.749 101.48 514.749 103.72C514.749 106.28 514.813 108.904 514.941 111.592C512.637 111.912 509.949 112.072 506.877 112.072H501.117C501.053 111.624 501.021 110.984 501.021 110.152H499.197C499.005 108.168 498.909 104.296 498.909 98.536V93.736C498.909 90.024 498.845 87.144 498.717 85.096C498.589 83.048 498.237 81.32 497.661 79.912C497.149 79.72 496.477 79.624 495.645 79.624C493.725 79.624 492.381 80.264 491.613 81.544C490.909 82.824 490.557 85.288 490.557 88.936C490.557 90.664 490.621 93.064 490.749 96.136C490.877 99.336 490.941 101.672 490.941 103.144C490.941 105.896 490.813 108.296 490.557 110.344V111.4C488.317 111.976 486.461 112.264 484.989 112.264C484.093 112.264 483.389 112.232 482.877 112.168L480.573 112.072H479.517C478.557 112.072 477.629 112.136 476.733 112.264V110.152L474.813 110.344L474.717 92.2C474.589 84.136 474.525 78.024 474.525 73.864C474.525 70.472 474.589 65.896 474.717 60.136C476.253 60.328 477.693 60.424 479.037 60.424C479.549 60.424 480.381 60.328 481.533 60.136C482.749 59.944 484.381 59.848 486.429 59.848C488.157 59.848 489.053 60.232 489.117 61C489.117 61.384 489.405 61.736 489.981 62.056C490.621 62.312 490.973 62.6 491.037 62.92V63.4ZM487.005 60.712C485.213 60.712 483.197 60.872 480.957 61.192C479.933 61.32 479.293 61.384 479.037 61.384H477.885C477.053 61.384 476.317 61.32 475.677 61.192C475.549 63.176 475.485 66.088 475.485 69.928V75.784C475.485 79.688 475.549 85.352 475.677 92.776L475.773 109.288C476.541 109.224 477.565 109.192 478.845 109.192L483.453 109.288C484.797 109.288 486.205 109.096 487.677 108.712V108.328C487.933 106.216 488.061 103.848 488.061 101.224C488.061 99.56 487.997 97.128 487.869 93.928C487.741 90.728 487.677 88.296 487.677 86.632C487.677 82.792 488.157 80.2 489.117 78.856C490.077 77.448 491.613 76.744 493.725 76.744C496.029 76.744 497.501 77.448 498.141 78.856C498.845 80.2 499.261 81.736 499.389 83.464C499.517 85.128 499.613 86.28 499.677 86.92C499.805 87.88 499.869 89.416 499.869 91.528V94.888V101.992V105.064C499.869 106.984 499.933 108.36 500.061 109.192L505.629 109.288C507.933 109.288 510.077 109.128 512.061 108.808C511.933 106.376 511.869 104.36 511.869 102.76C511.869 100.52 511.933 96.904 512.061 91.912C512.189 86.664 512.253 82.824 512.253 80.392C512.253 75.976 512.093 72.424 511.773 69.736C511.453 66.984 510.877 65.224 510.045 64.456C507.869 62.472 504.893 61.48 501.117 61.48C499.069 61.48 497.245 61.8 495.645 62.44C494.045 63.08 492.541 63.816 491.133 64.648C489.725 65.416 488.797 65.928 488.349 66.184L488.445 63.976C488.445 61.8 487.965 60.712 487.005 60.712Z" fill="#ADADAD"/>
<path d="M487.005 60.712C485.213 60.712 483.197 60.872 480.957 61.192C479.933 61.32 479.293 61.384 479.037 61.384H477.885C477.053 61.384 476.317 61.32 475.677 61.192C475.549 63.176 475.485 66.088 475.485 69.928V75.784C475.485 79.688 475.549 85.352 475.677 92.776L475.773 109.288C476.541 109.224 477.565 109.192 478.845 109.192L483.453 109.288C484.797 109.288 486.205 109.096 487.677 108.712V108.328C487.933 106.216 488.061 103.848 488.061 101.224C488.061 99.56 487.997 97.128 487.869 93.928C487.741 90.728 487.677 88.296 487.677 86.632C487.677 82.792 488.157 80.2 489.117 78.856C490.077 77.448 491.613 76.744 493.725 76.744C496.029 76.744 497.501 77.448 498.141 78.856C498.845 80.2 499.261 81.736 499.389 83.464C499.517 85.128 499.613 86.28 499.677 86.92C499.805 87.88 499.869 89.416 499.869 91.528V94.888V101.992V105.064C499.869 106.984 499.933 108.36 500.061 109.192L505.629 109.288C507.933 109.288 510.077 109.128 512.061 108.808C511.933 106.376 511.869 104.36 511.869 102.76C511.869 100.52 511.933 96.904 512.061 91.912C512.189 86.664 512.253 82.824 512.253 80.392C512.253 75.976 512.093 72.424 511.773 69.736C511.453 66.984 510.877 65.224 510.045 64.456C507.869 62.472 504.893 61.48 501.117 61.48C499.069 61.48 497.245 61.8 495.645 62.44C494.045 63.08 492.541 63.816 491.133 64.648C489.725 65.416 488.797 65.928 488.349 66.184L488.445 63.976C488.445 61.8 487.965 60.712 487.005 60.712Z" fill="#ADADAD"/>
<path d="M447.144 67.432C448.808 77.416 450.248 84.872 451.464 89.8L452.328 82.696C452.456 81.864 452.744 79.656 453.192 76.072C453.64 72.488 454.152 69.352 454.728 66.664C455.304 63.912 455.944 61.736 456.648 60.136L461.256 60.04C462.28 59.976 463.816 59.944 465.864 59.944C466.504 59.944 468.744 60.04 472.584 60.232C472.456 60.552 472.296 61.16 472.104 62.056L474.504 62.152C471.496 73.928 469.032 84.2 467.112 92.968C465.512 100.328 463.688 106.44 461.64 111.304C459.656 116.232 456.392 120.392 451.848 123.784C447.368 127.24 441.256 128.968 433.512 128.968H432.456C431.432 128.968 430.472 128.904 429.576 128.776C429.512 128.52 429.448 128.2 429.384 127.816C429.32 127.496 429.16 127.24 428.904 127.048C428.648 126.92 428.232 126.856 427.656 126.856C426.824 124.04 426.408 121.256 426.408 118.504C426.408 116.2 426.6 114.12 426.984 112.264L431.208 112.36C431.848 112.424 432.776 112.456 433.992 112.456C435.784 112.456 437.16 112.168 438.12 111.592C439.08 111.016 439.56 109.928 439.56 108.328C439.56 107.752 439.528 107.24 439.464 106.792V106.888C437.288 94.984 433.448 79.272 427.944 59.752C429.928 60.072 431.56 60.232 432.84 60.232L436.488 60.136H439.56C441.416 60.136 442.76 60.2 443.592 60.328L444.456 61.096C444.456 61.544 444.52 61.864 444.648 62.056C444.776 62.184 445.064 62.248 445.512 62.248L446.376 63.016L447.144 67.432ZM433.512 61.192H431.784C430.696 61.192 429.864 61.128 429.288 61C429.992 63.368 430.536 65.416 430.92 67.144C433.224 75.464 435.112 82.664 436.584 88.744C438.12 94.76 439.4 100.744 440.424 106.696C440.488 107.144 440.52 107.72 440.52 108.424C440.52 110.344 439.912 111.656 438.696 112.36C437.544 113.064 435.944 113.416 433.896 113.416C432.616 113.416 431.624 113.384 430.92 113.32L427.848 113.224C427.528 114.952 427.368 116.712 427.368 118.504C427.368 121.448 427.72 123.944 428.424 125.992C429.128 126.056 430.184 126.088 431.592 126.088C439.4 126.088 445.48 124.392 449.832 121C454.248 117.672 457.384 113.64 459.24 108.904C461.096 104.104 462.824 97.896 464.424 90.28C465.128 86.824 465.736 84.168 466.248 82.312L467.112 78.76C468.584 72.232 469.992 66.344 471.336 61.096C470.248 61.032 468.744 61 466.824 61L458.568 61.096H457.32C456.616 62.824 456.008 65.096 455.496 67.912C455.048 70.664 454.536 74.44 453.96 79.24C453.32 83.912 452.808 87.432 452.424 89.8C452.04 92.168 451.56 94.184 450.984 95.848C449.384 91.432 447.336 82.344 444.84 68.584L443.496 61.288C441.832 61.16 440.52 61.096 439.56 61.096L433.512 61.192Z" fill="#ADADAD"/>
<path d="M433.512 61.192H431.784C430.696 61.192 429.864 61.128 429.288 61C429.992 63.368 430.536 65.416 430.92 67.144C433.224 75.464 435.112 82.664 436.584 88.744C438.12 94.76 439.4 100.744 440.424 106.696C440.488 107.144 440.52 107.72 440.52 108.424C440.52 110.344 439.912 111.656 438.696 112.36C437.544 113.064 435.944 113.416 433.896 113.416C432.616 113.416 431.624 113.384 430.92 113.32L427.848 113.224C427.528 114.952 427.368 116.712 427.368 118.504C427.368 121.448 427.72 123.944 428.424 125.992C429.128 126.056 430.184 126.088 431.592 126.088C439.4 126.088 445.48 124.392 449.832 121C454.248 117.672 457.384 113.64 459.24 108.904C461.096 104.104 462.824 97.896 464.424 90.28C465.128 86.824 465.736 84.168 466.248 82.312L467.112 78.76C468.584 72.232 469.992 66.344 471.336 61.096C470.248 61.032 468.744 61 466.824 61L458.568 61.096H457.32C456.616 62.824 456.008 65.096 455.496 67.912C455.048 70.664 454.536 74.44 453.96 79.24C453.32 83.912 452.808 87.432 452.424 89.8C452.04 92.168 451.56 94.184 450.984 95.848C449.384 91.432 447.336 82.344 444.84 68.584L443.496 61.288C441.832 61.16 440.52 61.096 439.56 61.096L433.512 61.192Z" fill="#ADADAD"/>
<path d="M428.87 66.376C426.054 66.824 423.43 67.048 420.998 67.048C417.99 67.048 415.366 66.728 413.126 66.088C413.19 65.896 413.222 65.416 413.222 64.648C412.326 64.52 411.654 64.36 411.206 64.168C411.27 63.976 411.302 63.56 411.302 62.92C411.302 61.576 410.982 60.68 410.342 60.232C409.702 59.784 408.806 59.56 407.654 59.56C406.374 59.56 405.286 59.944 404.39 60.712C403.494 61.48 403.046 62.6 403.046 64.072C403.046 65.096 403.27 65.768 403.718 66.088C404.166 66.344 404.71 66.504 405.35 66.568C405.99 66.632 406.438 66.696 406.694 66.76C410.662 67.336 414.406 68.872 417.926 71.368C421.51 73.8 424.358 76.776 426.47 80.296C428.646 83.752 429.734 87.272 429.734 90.856C429.734 95.144 428.774 98.92 426.854 102.184C424.934 105.448 422.374 107.944 419.174 109.672C416.038 111.464 412.614 112.36 408.902 112.36C404.678 112.36 400.518 111.4 396.422 109.48C392.326 107.624 388.966 105.064 386.342 101.8C383.782 98.472 382.502 94.856 382.502 90.952L382.598 89.704V88.36C384.326 88.104 386.182 87.976 388.166 87.976L393.734 88.072C395.014 88.136 396.838 88.168 399.206 88.168C399.206 88.872 399.302 89.512 399.494 90.088H401.126C401.126 91.688 401.478 92.808 402.182 93.448C402.886 94.024 403.942 94.312 405.35 94.312C406.758 94.312 407.942 93.928 408.902 93.16C409.862 92.392 410.342 91.304 410.342 89.896C410.342 87.912 409.606 86.536 408.134 85.768C406.662 85 405.158 84.488 403.622 84.232C402.086 83.912 401.094 83.72 400.646 83.656L399.206 83.368C397.286 82.984 395.686 82.376 394.406 81.544C393.126 80.648 391.75 79.464 390.278 77.992C385.798 73.704 383.558 68.616 383.558 62.728C383.558 58.76 384.55 55.112 386.534 51.784C388.518 48.456 391.206 45.832 394.598 43.912C398.054 41.928 401.862 40.936 406.022 40.936C410.31 40.936 414.278 41.736 417.926 43.336C421.638 44.936 424.614 47.24 426.854 50.248C429.094 53.256 430.214 56.808 430.214 60.904C430.214 62.504 430.022 64.328 429.638 66.376H428.87ZM426.854 63.496C427.174 61.704 427.334 60.2 427.334 58.984C427.334 53.288 425.286 49.032 421.19 46.216C417.158 43.336 412.102 41.896 406.022 41.896C401.99 41.896 398.342 42.824 395.078 44.68C391.814 46.536 389.222 49.064 387.302 52.264C385.446 55.464 384.518 58.952 384.518 62.728C384.518 64.968 384.998 67.4 385.958 70.024C386.918 72.584 388.39 74.856 390.374 76.84C392.358 78.824 394.726 80.04 397.478 80.488C398.054 80.616 399.718 80.968 402.47 81.544C405.222 82.056 407.366 83.016 408.902 84.424C410.502 85.832 411.302 87.656 411.302 89.896C411.302 91.688 410.726 93.032 409.574 93.928C408.422 94.824 407.014 95.272 405.35 95.272C403.494 95.272 401.862 94.76 400.454 93.736C399.11 92.648 398.374 91.112 398.246 89.128C396.262 89.128 394.758 89.096 393.734 89.032L388.55 88.936C386.758 88.936 385.094 89.032 383.558 89.224V90.856C383.558 94.632 384.71 97.928 387.014 100.744C389.318 103.56 392.262 105.736 395.846 107.272C399.494 108.744 403.238 109.48 407.078 109.48C410.598 109.48 413.862 108.712 416.87 107.176C419.878 105.576 422.278 103.24 424.07 100.168C425.926 97.032 426.854 93.32 426.854 89.032C426.854 85.512 425.926 82.216 424.07 79.144C422.214 76.008 419.718 73.416 416.582 71.368C413.51 69.32 410.182 68.104 406.598 67.72C402.31 67.272 400.166 65.384 400.166 62.056C400.166 60.328 400.71 59.016 401.798 58.12C402.886 57.16 404.198 56.68 405.734 56.68C407.526 56.68 409.094 57.192 410.438 58.216C411.782 59.24 412.454 60.584 412.454 62.248C412.454 62.824 412.422 63.208 412.358 63.4C414.47 63.976 416.678 64.264 418.982 64.264C420.966 64.264 423.558 64.008 426.758 63.496H426.854Z" fill="#ADADAD"/>
<path d="M426.854 63.496C427.174 61.704 427.334 60.2 427.334 58.984C427.334 53.288 425.286 49.032 421.19 46.216C417.158 43.336 412.102 41.896 406.022 41.896C401.99 41.896 398.342 42.824 395.078 44.68C391.814 46.536 389.222 49.064 387.302 52.264C385.446 55.464 384.518 58.952 384.518 62.728C384.518 64.968 384.998 67.4 385.958 70.024C386.918 72.584 388.39 74.856 390.374 76.84C392.358 78.824 394.726 80.04 397.478 80.488C398.054 80.616 399.718 80.968 402.47 81.544C405.222 82.056 407.366 83.016 408.902 84.424C410.502 85.832 411.302 87.656 411.302 89.896C411.302 91.688 410.726 93.032 409.574 93.928C408.422 94.824 407.014 95.272 405.35 95.272C403.494 95.272 401.862 94.76 400.454 93.736C399.11 92.648 398.374 91.112 398.246 89.128C396.262 89.128 394.758 89.096 393.734 89.032L388.55 88.936C386.758 88.936 385.094 89.032 383.558 89.224V90.856C383.558 94.632 384.71 97.928 387.014 100.744C389.318 103.56 392.262 105.736 395.846 107.272C399.494 108.744 403.238 109.48 407.078 109.48C410.598 109.48 413.862 108.712 416.87 107.176C419.878 105.576 422.278 103.24 424.07 100.168C425.926 97.032 426.854 93.32 426.854 89.032C426.854 85.512 425.926 82.216 424.07 79.144C422.214 76.008 419.718 73.416 416.582 71.368C413.51 69.32 410.182 68.104 406.598 67.72C402.31 67.272 400.166 65.384 400.166 62.056C400.166 60.328 400.71 59.016 401.798 58.12C402.886 57.16 404.198 56.68 405.734 56.68C407.526 56.68 409.094 57.192 410.438 58.216C411.782 59.24 412.454 60.584 412.454 62.248C412.454 62.824 412.422 63.208 412.358 63.4C414.47 63.976 416.678 64.264 418.982 64.264C420.966 64.264 423.558 64.008 426.758 63.496H426.854Z" fill="#ADADAD"/>
<path d="M357.606 89.608C357.606 91.272 357.702 92.648 357.894 93.736C358.15 94.76 358.63 95.88 359.334 97.096V97.288C360.166 97.736 361.19 97.96 362.406 97.96C363.75 97.96 364.87 97.352 365.766 96.136C366.662 94.856 367.11 92.968 367.11 90.472V89.512C368.518 89.64 369.574 89.704 370.278 89.704L373.638 89.608C374.342 89.544 375.43 89.512 376.902 89.512C377.99 89.512 379.43 89.672 381.222 89.992L381.126 91.624L383.142 91.912C383.142 98.824 382.374 103.784 380.838 106.792C379.366 109.8 377.446 111.592 375.078 112.168C372.774 112.808 369.222 113.128 364.422 113.128C360.582 113.128 357.51 112.84 355.206 112.264C352.966 111.752 351.046 110.536 349.446 108.616C346.502 106.184 344.326 102.696 342.918 98.152C341.51 93.608 340.806 88.68 340.806 83.368C340.806 77.16 341.542 72.072 343.014 68.104C344.358 65.032 346.694 62.696 350.022 61.096C353.35 59.432 357.062 58.6 361.158 58.6C366.086 58.6 370.214 59.656 373.542 61.768C376.934 63.88 379.43 66.728 381.03 70.312C382.694 73.832 383.526 77.704 383.526 81.928C383.526 82.312 383.43 83.944 383.238 86.824C382.022 87.144 378.79 87.432 373.542 87.688C368.358 87.944 363.75 88.072 359.718 88.072C358.758 88.072 358.054 88.04 357.606 87.976V89.608ZM354.726 84.904C355.494 85.096 357.702 85.192 361.35 85.192C364.87 85.192 368.678 85.096 372.774 84.904C376.87 84.648 379.43 84.392 380.454 84.136C380.582 82.216 380.646 80.84 380.646 80.008C380.646 73.608 379.206 68.616 376.326 65.032C373.51 61.384 368.454 59.56 361.158 59.56C357.318 59.56 353.766 60.36 350.502 61.96C347.302 63.496 345.094 65.64 343.878 68.392C342.406 72.36 341.67 77.672 341.67 84.328C341.67 90.984 342.79 96.744 345.03 101.608C347.27 106.472 350.758 109.256 355.494 109.96L359.718 110.056C361.894 110.184 363.59 110.248 364.806 110.248C367.814 110.248 370.374 109.928 372.486 109.288C374.662 108.648 376.358 107.464 377.574 105.736C378.406 105.032 378.982 103.56 379.302 101.32C379.622 99.016 379.942 95.496 380.262 90.76C379.302 90.568 378.054 90.472 376.518 90.472L372.774 90.568C372.006 90.632 370.95 90.664 369.606 90.664C368.838 90.664 368.358 90.632 368.166 90.568V91.336C368.166 93.832 367.59 95.72 366.438 97C365.35 98.28 364.006 98.92 362.406 98.92C357.478 98.92 354.918 94.824 354.726 86.632V84.904ZM370.086 77.32C370.086 77.512 369.862 77.608 369.414 77.608C369.094 77.608 368.454 77.576 367.494 77.512C366.534 77.448 365.382 77.416 364.038 77.416L357.798 77.512C356.582 77.512 355.782 77.448 355.398 77.32C355.014 77.192 354.822 76.904 354.822 76.456C354.822 71.528 357.542 69.064 362.982 69.064C364.198 69.064 365.318 69.384 366.342 70.024C367.494 70.6 368.39 71.464 369.03 72.616C369.734 73.768 370.086 74.984 370.086 76.264V77.32ZM367.782 72.712C366.95 72.2 365.99 71.944 364.902 71.944C362.662 71.944 361.03 72.328 360.006 73.096C359.046 73.864 358.374 75.016 357.99 76.552L359.814 76.456H364.038L368.166 76.552L369.126 76.648V76.264C369.126 74.792 368.71 73.64 367.878 72.808L367.782 72.712Z" fill="#ADADAD"/>
<path fill-rule="evenodd" clip-rule="evenodd" d="M354.726 84.904C355.494 85.096 357.702 85.192 361.35 85.192C364.87 85.192 368.678 85.096 372.774 84.904C376.87 84.648 379.43 84.392 380.454 84.136C380.582 82.216 380.646 80.84 380.646 80.008C380.646 73.608 379.206 68.616 376.326 65.032C373.51 61.384 368.454 59.56 361.158 59.56C357.318 59.56 353.766 60.36 350.502 61.96C347.302 63.496 345.094 65.64 343.878 68.392C342.406 72.36 341.67 77.672 341.67 84.328C341.67 90.984 342.79 96.744 345.03 101.608C347.27 106.472 350.758 109.256 355.494 109.96L359.718 110.056C361.894 110.184 363.59 110.248 364.806 110.248C367.814 110.248 370.374 109.928 372.486 109.288C374.662 108.648 376.358 107.464 377.574 105.736C378.406 105.032 378.982 103.56 379.302 101.32C379.622 99.016 379.942 95.496 380.262 90.76C379.302 90.568 378.054 90.472 376.518 90.472L372.774 90.568C372.006 90.632 370.95 90.664 369.606 90.664C368.838 90.664 368.358 90.632 368.166 90.568V91.336C368.166 93.832 367.59 95.72 366.438 97C365.35 98.28 364.006 98.92 362.406 98.92C357.478 98.92 354.918 94.824 354.726 86.632V84.904ZM369.414 77.608C369.862 77.608 370.086 77.512 370.086 77.32V76.264C370.086 74.984 369.734 73.768 369.03 72.616C368.39 71.464 367.494 70.6 366.342 70.024C365.318 69.384 364.198 69.064 362.982 69.064C357.542 69.064 354.822 71.528 354.822 76.456C354.822 76.904 355.014 77.192 355.398 77.32C355.782 77.448 356.582 77.512 357.798 77.512L364.038 77.416C365.382 77.416 366.534 77.448 367.494 77.512C368.454 77.576 369.094 77.608 369.414 77.608Z" fill="#ADADAD"/>
<path d="M322.643 108.616C319.251 110.472 315.891 111.4 312.563 111.4C310.515 111.4 308.467 111.048 306.419 110.344C304.371 109.704 302.995 108.68 302.291 107.272C300.947 106.184 299.987 104.328 299.411 101.704C298.899 99.08 298.643 95.208 298.643 90.088C298.643 87.592 298.707 83.848 298.835 78.856C298.963 73.992 299.027 70.44 299.027 68.2C299.027 65.64 298.963 63.016 298.835 60.328C301.075 60.008 303.699 59.848 306.707 59.848H312.659C312.659 60.68 312.691 61.32 312.755 61.768H314.579C314.771 63.752 314.867 67.624 314.867 73.384V78.184C314.867 81.896 314.931 84.776 315.059 86.824C315.187 88.808 315.571 90.568 316.211 92.104C317.107 92.232 317.747 92.296 318.131 92.296C319.923 92.296 321.203 91.72 321.971 90.568C322.803 89.416 323.219 87.272 323.219 84.136C323.219 82.6 323.155 80.168 323.027 76.84C322.835 74.408 322.739 71.912 322.739 69.352C322.739 66.088 322.899 63.464 323.219 61.48V60.52C325.075 60.008 326.899 59.752 328.691 59.752L333.203 59.848H334.259C335.219 59.848 336.147 59.784 337.043 59.656V61.768L338.963 61.576L339.059 79.72C339.187 87.784 339.251 93.896 339.251 98.056C339.251 101.448 339.187 106.024 339.059 111.784C335.987 111.592 334.547 111.496 334.739 111.496C334.163 111.496 333.267 111.592 332.051 111.784C330.835 111.976 329.267 112.072 327.347 112.072C326.323 112.072 325.587 111.944 325.139 111.688C324.755 111.432 324.563 110.92 324.563 110.152C323.475 110.088 322.867 109.704 322.739 109L322.643 108.616ZM324.755 109.288C326.611 109.288 328.659 109.128 330.899 108.808C331.923 108.68 332.563 108.616 332.819 108.616C333.011 108.616 334.131 108.68 336.179 108.808C336.307 102.152 336.371 97.288 336.371 94.216C336.371 90.312 336.307 84.648 336.179 77.224L336.083 60.712C335.315 60.776 334.291 60.808 333.011 60.808L328.307 60.712C327.027 60.712 325.651 60.904 324.179 61.288V61.672C323.859 63.656 323.699 66.088 323.699 68.968C323.699 70.568 323.763 73.032 323.891 76.36C324.083 78.856 324.179 81.352 324.179 83.848C324.179 87.432 323.667 89.896 322.643 91.24C321.683 92.584 320.179 93.256 318.131 93.256C316.339 93.256 315.027 92.808 314.195 91.912C313.363 90.952 312.851 89.864 312.659 88.648C312.467 87.432 312.307 85.576 312.179 83.08C312.051 82.12 311.987 80.584 311.987 78.472V75.208V68.008V64.936C311.987 63.016 311.923 61.64 311.795 60.808L306.227 60.712C303.923 60.712 301.779 60.872 299.795 61.192C299.859 62.408 299.891 64.424 299.891 67.24C299.891 69.416 299.827 73.064 299.699 78.184C299.571 83.304 299.507 87.144 299.507 89.704C299.507 98.984 300.275 104.264 301.811 105.544C303.987 107.528 306.931 108.52 310.643 108.52C313.011 108.52 315.027 108.168 316.691 107.464C318.355 106.76 320.627 105.544 323.507 103.816L323.411 106.12C323.411 108.232 323.859 109.288 324.755 109.288Z" fill="#ADADAD"/>
<path d="M324.755 109.288C326.611 109.288 328.659 109.128 330.899 108.808C331.923 108.68 332.563 108.616 332.819 108.616C333.011 108.616 334.131 108.68 336.179 108.808C336.307 102.152 336.371 97.288 336.371 94.216C336.371 90.312 336.307 84.648 336.179 77.224L336.083 60.712C335.315 60.776 334.291 60.808 333.011 60.808L328.307 60.712C327.027 60.712 325.651 60.904 324.179 61.288V61.672C323.859 63.656 323.699 66.088 323.699 68.968C323.699 70.568 323.763 73.032 323.891 76.36C324.083 78.856 324.179 81.352 324.179 83.848C324.179 87.432 323.667 89.896 322.643 91.24C321.683 92.584 320.179 93.256 318.131 93.256C316.339 93.256 315.027 92.808 314.195 91.912C313.363 90.952 312.851 89.864 312.659 88.648C312.467 87.432 312.307 85.576 312.179 83.08C312.051 82.12 311.987 80.584 311.987 78.472V75.208V68.008V64.936C311.987 63.016 311.923 61.64 311.795 60.808L306.227 60.712C303.923 60.712 301.779 60.872 299.795 61.192C299.859 62.408 299.891 64.424 299.891 67.24C299.891 69.416 299.827 73.064 299.699 78.184C299.571 83.304 299.507 87.144 299.507 89.704C299.507 98.984 300.275 104.264 301.811 105.544C303.987 107.528 306.931 108.52 310.643 108.52C313.011 108.52 315.027 108.168 316.691 107.464C318.355 106.76 320.627 105.544 323.507 103.816L323.411 106.12C323.411 108.232 323.859 109.288 324.755 109.288Z" fill="#ADADAD"/>
<path d="M295.783 62.056C296.039 69.544 296.167 78.568 296.167 89.128C296.167 99.048 296.007 107.688 295.687 115.048V117.352C295.687 122.344 294.343 125.8 291.655 127.72C288.967 129.704 286.215 130.824 283.399 131.08C282.503 131.208 281.703 131.272 280.999 131.272C276.967 131.272 273.575 131.048 270.823 130.6C268.135 130.216 265.575 129.32 263.143 127.912C260.711 126.504 258.535 124.328 256.615 121.384C256.103 120.68 255.719 119.592 255.463 118.12C255.207 116.712 255.079 115.336 255.079 113.992C255.079 113.224 255.111 112.68 255.175 112.36C256.711 111.72 258.727 111.4 261.223 111.4C261.543 111.4 262.247 111.4 263.335 111.4C264.423 111.4 265.351 111.464 266.119 111.592C263.879 111.016 261.767 109.992 259.783 108.52C257.799 107.048 256.423 105.384 255.655 103.528V103.624C254.119 100.68 253.191 96.808 252.871 92.008C252.871 86.312 253.159 81.384 253.735 77.224C254.375 73 255.911 69.256 258.343 65.992C260.839 62.664 264.647 60.776 269.767 60.328C271.495 60.328 273.159 60.584 274.759 61.096C276.359 61.544 277.671 62.28 278.695 63.304C278.695 62.152 278.919 61.16 279.367 60.328C281.671 60.072 283.751 59.944 285.607 59.944C287.271 59.944 288.551 59.976 289.447 60.04L293.863 60.136L293.959 62.056H295.783ZM292.807 114.088C292.807 109.416 292.903 104.84 293.095 100.36C293.223 94.472 293.287 90.088 293.287 87.208C293.287 77.288 293.159 68.584 292.903 61.096L287.911 61C286.759 60.936 285.063 60.904 282.823 60.904C280.711 60.904 279.655 61.448 279.655 62.536L279.751 64.168V65.032C279.751 65.608 279.687 65.896 279.559 65.896L279.367 65.8C278.663 64.264 277.575 63.144 276.103 62.44C274.695 61.672 272.999 61.288 271.015 61.288C265.575 61.288 261.607 62.888 259.111 66.088C256.615 69.224 255.111 72.808 254.599 76.84C254.087 80.808 253.831 85.832 253.831 91.912C254.023 94.216 254.311 96.264 254.695 98.056C255.079 99.784 255.687 101.48 256.519 103.144C258.503 107.176 262.663 109.192 268.999 109.192C269.511 109.128 270.311 109.096 271.399 109.096C273.575 109.032 275.303 108.872 276.583 108.616C277.927 108.296 279.047 107.656 279.943 106.696C279.879 107.144 279.847 107.72 279.847 108.424L279.943 110.728C279.943 113.352 279.399 115.304 278.311 116.584C277.287 117.928 275.879 118.6 274.087 118.6C272.487 118.6 271.111 118.088 269.959 117.064C268.871 116.104 268.327 114.728 268.327 112.936C266.279 112.616 263.623 112.456 260.359 112.456C258.951 112.456 257.863 112.552 257.095 112.744C256.327 112.936 255.943 113.352 255.943 113.992C255.943 118.28 257.415 121.704 260.359 124.264C263.367 126.888 267.047 128.2 271.399 128.2L279.367 128.296C280.455 128.296 281.095 128.264 281.287 128.2C283.911 127.88 286.471 126.92 288.967 125.32C291.527 123.784 292.807 120.936 292.807 116.776V114.088ZM273.607 73.096C276.295 73.096 278.087 74.376 278.983 76.936C279.943 79.432 280.423 82.696 280.423 86.728L280.327 91.816C280.135 93.352 279.879 94.536 279.559 95.368C279.303 96.2 278.727 96.904 277.831 97.48C276.999 97.992 275.751 98.248 274.087 98.248C271.143 98.248 268.839 97.16 267.175 94.984C265.511 92.808 264.679 90.184 264.679 87.112V84.424C264.679 82.696 265.031 80.968 265.735 79.24C266.503 77.448 267.559 75.976 268.903 74.824C270.247 73.672 271.815 73.096 273.607 73.096ZM279.367 91.72C279.367 89.16 279.271 86.472 279.079 83.656C278.887 80.776 278.567 78.408 278.119 76.552C277.351 76.168 276.487 75.976 275.527 75.976C273.671 75.976 272.231 76.456 271.207 77.416L271.399 77.32C270.055 78.856 269.063 80.424 268.423 82.024C267.847 83.56 267.559 85.352 267.559 87.4V89.032C267.559 91.464 268.007 93.448 268.903 94.984C269.863 96.456 271.623 97.192 274.183 97.192C275.655 97.192 276.711 97 277.351 96.616C278.055 96.232 278.503 95.688 278.695 94.984C278.951 94.28 279.175 93.192 279.367 91.72ZM268.999 111.976C269.127 112.04 269.223 112.296 269.287 112.744C269.351 113.256 269.415 113.576 269.479 113.704L271.207 113.992C271.207 115.272 271.399 116.2 271.783 116.776C272.167 117.352 272.935 117.64 274.087 117.64C275.175 117.64 276.231 117.192 277.255 116.296C278.343 115.4 278.887 114.248 278.887 112.84L278.983 111.304C278.023 111.624 276.967 111.816 275.815 111.88C274.727 111.944 274.055 111.976 273.799 111.976C272.519 111.976 271.591 112.008 271.015 112.072C270.119 112.072 269.447 112.04 268.999 111.976Z" fill="#ADADAD"/>
<path fill-rule="evenodd" clip-rule="evenodd" d="M292.807 114.088C292.807 109.416 292.903 104.84 293.095 100.36C293.223 94.472 293.287 90.088 293.287 87.208C293.287 77.288 293.159 68.584 292.903 61.096L287.911 61C286.759 60.936 285.063 60.904 282.823 60.904C280.711 60.904 279.655 61.448 279.655 62.536L279.751 64.168V65.032C279.751 65.608 279.687 65.896 279.559 65.896L279.367 65.8C278.663 64.264 277.575 63.144 276.103 62.44C274.695 61.672 272.999 61.288 271.015 61.288C265.575 61.288 261.607 62.888 259.111 66.088C256.615 69.224 255.111 72.808 254.599 76.84C254.087 80.808 253.831 85.832 253.831 91.912C254.023 94.216 254.311 96.264 254.695 98.056C255.079 99.784 255.687 101.48 256.519 103.144C258.503 107.176 262.663 109.192 268.999 109.192C269.511 109.128 270.311 109.096 271.399 109.096C273.575 109.032 275.303 108.872 276.583 108.616C277.927 108.296 279.047 107.656 279.943 106.696C279.879 107.144 279.847 107.72 279.847 108.424L279.943 110.728C279.943 113.352 279.399 115.304 278.311 116.584C277.287 117.928 275.879 118.6 274.087 118.6C272.487 118.6 271.111 118.088 269.959 117.064C268.871 116.104 268.327 114.728 268.327 112.936C266.279 112.616 263.623 112.456 260.359 112.456C258.951 112.456 257.863 112.552 257.095 112.744C256.327 112.936 255.943 113.352 255.943 113.992C255.943 118.28 257.415 121.704 260.359 124.264C263.367 126.888 267.047 128.2 271.399 128.2L279.367 128.296C280.455 128.296 281.095 128.264 281.287 128.2C283.911 127.88 286.471 126.92 288.967 125.32C291.527 123.784 292.807 120.936 292.807 116.776V114.088ZM278.983 76.936C278.087 74.376 276.295 73.096 273.607 73.096C271.815 73.096 270.247 73.672 268.903 74.824C267.559 75.976 266.503 77.448 265.735 79.24C265.031 80.968 264.679 82.696 264.679 84.424V87.112C264.679 90.184 265.511 92.808 267.175 94.984C268.839 97.16 271.143 98.248 274.087 98.248C275.751 98.248 276.999 97.992 277.831 97.48C278.727 96.904 279.303 96.2 279.559 95.368C279.879 94.536 280.135 93.352 280.327 91.816L280.423 86.728C280.423 82.696 279.943 79.432 278.983 76.936Z" fill="#ADADAD"/>
<path d="M251.087 63.016C251.215 64.04 251.279 64.84 251.279 65.416V66.376C251.215 68.104 251.183 70.6 251.183 73.864L251.279 84.616C251.343 87.048 251.375 90.664 251.375 95.464C251.375 99.24 251.279 103.112 251.087 107.08V107.752C251.087 109.096 250.991 110.088 250.799 110.728C250.607 111.368 250.031 111.784 249.071 111.976H247.727C246.831 111.976 245.679 111.912 244.271 111.784L241.487 111.688C241.039 111.688 240.367 111.752 239.471 111.88L237.359 111.976C236.335 111.72 235.663 111.08 235.343 110.056C234.511 109.736 233.999 109.384 233.807 109C230.479 111.048 227.183 112.072 223.919 112.072C220.527 112.072 217.519 110.6 214.895 107.656C212.335 104.712 210.351 101.032 208.943 96.616C207.599 92.136 206.927 87.752 206.927 83.464C206.927 78.6 207.759 74.44 209.423 70.984C211.087 67.464 213.359 64.808 216.239 63.016C219.183 61.224 222.479 60.328 226.127 60.328C227.919 60.328 229.295 60.456 230.255 60.712C231.279 60.968 232.207 61.608 233.039 62.632C233.103 62.312 233.167 61.8 233.231 61.096C233.295 60.392 233.455 59.944 233.711 59.752C233.967 59.56 234.383 59.464 234.959 59.464C235.535 59.464 236.047 59.528 236.495 59.656C237.007 59.72 237.487 59.752 237.935 59.752H238.799C240.463 59.752 243.631 59.912 248.303 60.232L249.167 61.096L249.263 62.152H250.223L251.087 63.016ZM237.743 60.712L235.151 60.616C234.511 60.616 234.127 61.032 233.999 61.864C233.871 62.632 233.807 63.752 233.807 65.224V65.704C233.231 64.296 232.495 63.272 231.599 62.632C230.703 61.992 229.711 61.608 228.623 61.48C227.535 61.352 225.999 61.288 224.015 61.288C221.007 61.352 218.255 62.376 215.759 64.36C213.327 66.28 211.407 68.904 209.999 72.232C208.591 75.56 207.887 79.304 207.887 83.464C207.887 87.24 208.399 91.112 209.423 95.08C210.447 99.048 212.015 102.408 214.127 105.16C216.303 107.848 218.927 109.192 221.999 109.192C224.175 109.192 226.415 108.68 228.719 107.656C231.087 106.568 233.071 105.224 234.671 103.624C234.671 104.008 234.607 104.552 234.479 105.256C234.351 105.896 234.287 106.472 234.287 106.984C234.287 108.072 234.671 108.776 235.439 109.096C235.951 109.096 236.655 109.032 237.551 108.904L239.567 108.808L242.735 108.904C244.143 109.032 245.167 109.096 245.807 109.096H246.959C247.471 108.968 247.791 108.712 247.919 108.328C248.111 107.88 248.207 107.272 248.207 106.504V105.16C248.463 101.384 248.591 97.192 248.591 92.584L248.495 82.024C248.367 77.288 248.303 73.704 248.303 71.272C248.303 68.264 248.335 65.992 248.399 64.456V63.496C248.399 62.984 248.335 62.216 248.207 61.192C246.415 61.064 243.279 60.904 238.799 60.712H237.743ZM229.199 74.152C230.799 74.152 231.919 74.312 232.559 74.632C233.263 74.888 233.711 75.496 233.903 76.456C234.095 77.352 234.191 78.888 234.191 81.064V86.344C234.191 88.648 234.063 90.44 233.807 91.72C233.615 93 233.071 93.992 232.175 94.696C231.343 95.4 230.031 95.752 228.239 95.752C225.615 95.752 223.535 94.76 221.999 92.776C220.463 90.792 219.695 88.328 219.695 85.384C219.695 83.272 219.887 81.576 220.271 80.296C220.655 78.568 221.615 77.128 223.151 75.976C224.687 74.76 226.703 74.152 229.199 74.152ZM223.151 82.504C222.767 83.784 222.575 85.384 222.575 87.304C222.575 92.296 224.463 94.792 228.239 94.792C229.839 94.792 230.991 94.44 231.695 93.736C232.399 93.032 232.815 92.072 232.943 90.856C233.135 89.64 233.231 87.784 233.231 85.288V82.792L233.327 79.912C233.327 78.888 233.167 78.152 232.847 77.704C232.591 77.256 232.015 77.032 231.119 77.032C228.879 77.032 227.087 77.544 225.743 78.568C224.399 79.592 223.535 80.872 223.151 82.408V82.504Z" fill="#ADADAD"/>
<path fill-rule="evenodd" clip-rule="evenodd" d="M237.743 60.712L235.151 60.616C234.511 60.616 234.127 61.032 233.999 61.864C233.871 62.632 233.807 63.752 233.807 65.224V65.704C233.231 64.296 232.495 63.272 231.599 62.632C230.703 61.992 229.711 61.608 228.623 61.48C227.535 61.352 225.999 61.288 224.015 61.288C221.007 61.352 218.255 62.376 215.759 64.36C213.327 66.28 211.407 68.904 209.999 72.232C208.591 75.56 207.887 79.304 207.887 83.464C207.887 87.24 208.399 91.112 209.423 95.08C210.447 99.048 212.015 102.408 214.127 105.16C216.303 107.848 218.927 109.192 221.999 109.192C224.175 109.192 226.415 108.68 228.719 107.656C231.087 106.568 233.071 105.224 234.671 103.624C234.671 104.008 234.607 104.552 234.479 105.256C234.351 105.896 234.287 106.472 234.287 106.984C234.287 108.072 234.671 108.776 235.439 109.096C235.951 109.096 236.655 109.032 237.551 108.904L239.567 108.808L242.735 108.904C244.143 109.032 245.167 109.096 245.807 109.096H246.959C247.471 108.968 247.791 108.712 247.919 108.328C248.111 107.88 248.207 107.272 248.207 106.504V105.16C248.463 101.384 248.591 97.192 248.591 92.584L248.495 82.024C248.367 77.288 248.303 73.704 248.303 71.272C248.303 68.264 248.335 65.992 248.399 64.456V63.496C248.399 62.984 248.335 62.216 248.207 61.192C246.415 61.064 243.279 60.904 238.799 60.712H237.743ZM232.559 74.632C231.919 74.312 230.799 74.152 229.199 74.152C226.703 74.152 224.687 74.76 223.151 75.976C221.615 77.128 220.655 78.568 220.271 80.296C219.887 81.576 219.695 83.272 219.695 85.384C219.695 88.328 220.463 90.792 221.999 92.776C223.535 94.76 225.615 95.752 228.239 95.752C230.031 95.752 231.343 95.4 232.175 94.696C233.071 93.992 233.615 93 233.807 91.72C234.063 90.44 234.191 88.648 234.191 86.344V81.064C234.191 78.888 234.095 77.352 233.903 76.456C233.711 75.496 233.263 74.888 232.559 74.632Z" fill="#ADADAD"/>
<path d="M188.191 61.96C189.023 62.088 189.535 62.216 189.727 62.344C193.375 61.192 196.863 60.616 200.191 60.616C201.791 60.616 203.167 60.712 204.319 60.904C205.471 61.032 206.047 61.16 206.047 61.288V62.728C207.327 62.92 207.967 63.08 207.967 63.208L207.871 71.368C207.807 72.456 207.775 73.864 207.775 75.592C207.775 76.616 207.871 78.568 208.063 81.448L205.855 80.68L205.951 80.776L204.799 80.392L204.895 80.488C202.335 79.848 200.607 79.464 199.711 79.336C198.879 79.208 198.143 79.144 197.503 79.144C196.863 79.144 196.415 79.144 196.159 79.144C193.983 79.144 192.351 79.592 191.263 80.488C190.239 81.32 189.727 82.856 189.727 85.096C189.983 92.968 190.111 101.352 190.111 110.248V111.4C188.063 111.976 186.175 112.264 184.447 112.264C183.423 112.264 182.655 112.232 182.143 112.168L179.263 112.072H178.111C177.151 112.072 176.223 112.136 175.327 112.264V110.152L173.407 110.344L173.311 92.2C173.183 84.136 173.119 78.024 173.119 73.864C173.119 70.472 173.183 65.896 173.311 60.136C174.847 60.328 176.287 60.424 177.631 60.424C178.143 60.424 178.975 60.36 180.127 60.232C181.343 60.04 182.975 59.944 185.023 59.944C187.135 59.944 188.191 60.328 188.191 61.096V61.96ZM187.231 61.096C187.231 60.968 186.847 60.904 186.079 60.904C183.967 60.904 182.175 61 180.703 61.192C179.231 61.32 178.207 61.384 177.631 61.384H176.479C175.647 61.384 174.911 61.32 174.271 61.192C174.143 63.176 174.079 66.088 174.079 69.928V75.784C174.079 79.688 174.143 85.352 174.271 92.776L174.367 109.288C175.135 109.224 176.191 109.192 177.535 109.192L182.719 109.288C184.255 109.288 185.759 109.096 187.231 108.712V108.328C187.231 104.936 187.167 100.552 187.039 95.176C186.911 89.8 186.847 85.608 186.847 82.6C186.847 80.232 187.455 78.6 188.671 77.704C189.951 76.744 191.807 76.264 194.239 76.264C194.623 76.264 195.167 76.264 195.871 76.264C196.639 76.2 197.503 76.264 198.463 76.456C199.487 76.584 200.735 76.84 202.207 77.224C202.527 77.352 202.847 77.48 203.167 77.608C203.551 77.672 203.903 77.768 204.223 77.896L205.087 78.184C205.023 77.48 204.991 76.456 204.991 75.112V71.56L205.087 61.288C205.087 61.16 204.415 61.096 203.071 61.096C200.639 61.096 197.759 61.448 194.431 62.152C191.167 62.792 188.799 63.528 187.327 64.36C187.327 63.912 187.295 63.592 187.231 63.4C187.231 63.208 187.231 63.048 187.231 62.92V61.096Z" fill="#ADADAD"/>
<path d="M187.231 61.096C187.231 60.968 186.847 60.904 186.079 60.904C183.967 60.904 182.175 61 180.703 61.192C179.231 61.32 178.207 61.384 177.631 61.384H176.479C175.647 61.384 174.911 61.32 174.271 61.192C174.143 63.176 174.079 66.088 174.079 69.928V75.784C174.079 79.688 174.143 85.352 174.271 92.776L174.367 109.288C175.135 109.224 176.191 109.192 177.535 109.192L182.719 109.288C184.255 109.288 185.759 109.096 187.231 108.712V108.328C187.231 104.936 187.167 100.552 187.039 95.176C186.911 89.8 186.847 85.608 186.847 82.6C186.847 80.232 187.455 78.6 188.671 77.704C189.951 76.744 191.807 76.264 194.239 76.264H195.871C196.639 76.2 197.503 76.264 198.463 76.456C199.487 76.584 200.735 76.84 202.207 77.224L203.167 77.608C203.551 77.672 203.903 77.768 204.223 77.896L205.087 78.184C205.023 77.48 204.991 76.456 204.991 75.112V71.56L205.087 61.288C205.087 61.16 204.415 61.096 203.071 61.096C200.639 61.096 197.759 61.448 194.431 62.152C191.167 62.792 188.799 63.528 187.327 64.36C187.327 63.912 187.295 63.592 187.231 63.4V62.92V61.096Z" fill="#ADADAD"/>
<path d="M172.344 63.88C172.344 67.976 171.224 71.816 168.984 75.4C166.744 78.92 163.768 81.736 160.056 83.848C156.408 85.896 152.568 86.92 148.536 86.92C147.448 86.92 146.648 86.888 146.136 86.824V90.856C146.136 97 146.232 103.656 146.424 110.824C145.784 110.824 144.888 110.92 143.736 111.112C143.288 111.176 142.296 111.272 140.76 111.4C139.288 111.592 137.88 111.688 136.536 111.688C133.656 111.688 130.872 111.528 128.184 111.208C128.184 110.312 128.056 109.768 127.8 109.576C127.544 109.384 127.032 109.288 126.264 109.288C126.008 103.08 125.88 92.136 125.88 76.456V64.84C125.88 54.088 125.784 46.312 125.592 41.512C130.456 40.168 135.448 39.496 140.568 39.496C145.88 39.496 150.872 40.392 155.544 42.184C160.28 43.912 164.184 46.6 167.256 50.248C170.328 53.896 172.024 58.408 172.344 63.784V63.88ZM169.464 61.864C169.08 54.44 166.104 49.032 160.536 45.64C154.968 42.184 148.28 40.456 140.472 40.456C135.928 40.456 131.288 41.064 126.552 42.28C126.808 49.448 126.936 60.808 126.936 76.36V93.256C126.936 98.632 127.032 103.688 127.224 108.424C128.952 108.68 131.416 108.808 134.616 108.808C138.84 108.808 141.72 108.552 143.256 108.04L143.544 107.848C143.352 101.64 143.256 95.752 143.256 90.184V86.44C143.256 85.224 143.224 84.328 143.16 83.752C144.312 83.944 145.464 84.04 146.616 84.04C150.2 84.04 153.752 83.112 157.272 81.256C160.856 79.4 163.768 76.872 166.008 73.672C168.312 70.472 169.464 67.016 169.464 63.304V61.864ZM155.64 63.4C155.64 66.216 154.552 68.008 152.376 68.776C150.264 69.544 147.416 69.96 143.832 70.024L141.72 70.12H141.432C140.92 68.52 140.664 65.896 140.664 62.248C140.664 59.24 140.632 57.064 140.568 55.72C140.952 55.336 142.296 55.144 144.6 55.144C147.8 55.144 150.488 56.04 152.664 57.832C153.624 58.408 154.36 59.208 154.872 60.232C155.384 61.192 155.64 62.248 155.64 63.4ZM146.52 58.024C145.304 58.024 144.28 58.152 143.448 58.408C143.512 59.368 143.544 60.744 143.544 62.536V65.32V66.952C143.544 67.912 143.608 68.616 143.736 69.064H144.216C147.288 69.064 149.784 68.712 151.704 68.008C153.688 67.24 154.68 65.672 154.68 63.304C154.68 61.448 153.848 60.104 152.184 59.272C150.52 58.44 148.632 58.024 146.52 58.024Z" fill="#ADADAD"/>
<path fill-rule="evenodd" clip-rule="evenodd" d="M169.464 61.864C169.08 54.44 166.104 49.032 160.536 45.64C154.968 42.184 148.28 40.456 140.472 40.456C135.928 40.456 131.288 41.064 126.552 42.28C126.808 49.448 126.936 60.808 126.936 76.36V93.256C126.936 98.632 127.032 103.688 127.224 108.424C128.952 108.68 131.416 108.808 134.616 108.808C138.84 108.808 141.72 108.552 143.256 108.04L143.544 107.848C143.352 101.64 143.256 95.752 143.256 90.184V86.44C143.256 85.224 143.224 84.328 143.16 83.752C144.312 83.944 145.464 84.04 146.616 84.04C150.2 84.04 153.752 83.112 157.272 81.256C160.856 79.4 163.768 76.872 166.008 73.672C168.312 70.472 169.464 67.016 169.464 63.304V61.864ZM152.376 68.776C154.552 68.008 155.64 66.216 155.64 63.4C155.64 62.248 155.384 61.192 154.872 60.232C154.36 59.208 153.624 58.408 152.664 57.832C150.488 56.04 147.8 55.144 144.6 55.144C142.296 55.144 140.952 55.336 140.568 55.72C140.632 57.064 140.664 59.24 140.664 62.248C140.664 65.896 140.92 68.52 141.432 70.12H141.72L143.832 70.024C147.416 69.96 150.264 69.544 152.376 68.776Z" fill="#ADADAD"/>
<path d="M666.606 89.608C666.606 91.272 666.702 92.648 666.894 93.736C667.15 94.76 667.63 95.88 668.334 97.096V97.288C669.166 97.736 670.19 97.96 671.406 97.96C672.75 97.96 673.87 97.352 674.766 96.136C675.662 94.856 676.11 92.968 676.11 90.472V89.512C677.518 89.64 678.574 89.704 679.278 89.704L682.638 89.608C683.342 89.544 684.43 89.512 685.902 89.512C686.99 89.512 688.43 89.672 690.222 89.992L690.126 91.624L692.142 91.912C692.142 98.824 691.374 103.784 689.838 106.792C688.366 109.8 686.446 111.592 684.078 112.168C681.774 112.808 678.222 113.128 673.422 113.128C669.582 113.128 666.51 112.84 664.206 112.264C661.966 111.752 660.046 110.536 658.446 108.616C655.502 106.184 653.326 102.696 651.918 98.152C650.51 93.608 649.806 88.68 649.806 83.368C649.806 77.16 650.542 72.072 652.014 68.104C653.358 65.032 655.694 62.696 659.022 61.096C662.35 59.432 666.062 58.6 670.158 58.6C675.086 58.6 679.214 59.656 682.542 61.768C685.934 63.88 688.43 66.728 690.03 70.312C691.694 73.832 692.526 77.704 692.526 81.928C692.526 82.312 692.43 83.944 692.238 86.824C691.022 87.144 687.79 87.432 682.542 87.688C677.358 87.944 672.75 88.072 668.718 88.072C667.758 88.072 667.054 88.04 666.606 87.976V89.608ZM663.726 84.904C664.494 85.096 666.702 85.192 670.35 85.192C673.87 85.192 677.678 85.096 681.774 84.904C685.87 84.648 688.43 84.392 689.454 84.136C689.582 82.216 689.646 80.84 689.646 80.008C689.646 73.608 688.206 68.616 685.326 65.032C682.51 61.384 677.454 59.56 670.158 59.56C666.318 59.56 662.766 60.36 659.502 61.96C656.302 63.496 654.094 65.64 652.878 68.392C651.406 72.36 650.67 77.672 650.67 84.328C650.67 90.984 651.79 96.744 654.03 101.608C656.27 106.472 659.758 109.256 664.494 109.96L668.718 110.056C670.894 110.184 672.59 110.248 673.806 110.248C676.814 110.248 679.374 109.928 681.486 109.288C683.662 108.648 685.358 107.464 686.574 105.736C687.406 105.032 687.982 103.56 688.302 101.32C688.622 99.016 688.942 95.496 689.262 90.76C688.302 90.568 687.054 90.472 685.518 90.472L681.774 90.568C681.006 90.632 679.95 90.664 678.606 90.664C677.838 90.664 677.358 90.632 677.166 90.568V91.336C677.166 93.832 676.59 95.72 675.438 97C674.35 98.28 673.006 98.92 671.406 98.92C666.478 98.92 663.918 94.824 663.726 86.632V84.904ZM679.086 77.32C679.086 77.512 678.862 77.608 678.414 77.608C678.094 77.608 677.454 77.576 676.494 77.512C675.534 77.448 674.382 77.416 673.038 77.416L666.798 77.512C665.582 77.512 664.782 77.448 664.398 77.32C664.014 77.192 663.822 76.904 663.822 76.456C663.822 71.528 666.542 69.064 671.982 69.064C673.198 69.064 674.318 69.384 675.342 70.024C676.494 70.6 677.39 71.464 678.03 72.616C678.734 73.768 679.086 74.984 679.086 76.264V77.32ZM676.782 72.712C675.95 72.2 674.99 71.944 673.902 71.944C671.662 71.944 670.03 72.328 669.006 73.096C668.046 73.864 667.374 75.016 666.99 76.552L668.814 76.456H673.038L677.166 76.552L678.126 76.648V76.264C678.126 74.792 677.71 73.64 676.878 72.808L676.782 72.712Z" fill="black"/>
<path d="M649.499 78.664C647.259 79.048 644.795 79.24 642.107 79.24C639.867 79.24 637.307 78.984 634.427 78.472L634.523 77.704C634.523 77.32 634.363 77.064 634.043 76.936C633.723 76.744 633.403 76.648 633.083 76.648C632.763 76.584 632.571 76.552 632.507 76.552L632.603 75.784C632.603 74.76 632.283 74.056 631.643 73.672C631.003 73.224 630.171 72.904 629.147 72.712C627.995 73.032 627.099 73.512 626.459 74.152C625.819 74.792 625.499 75.496 625.499 76.264C625.499 77.48 626.139 78.344 627.419 78.856L627.227 78.76C634.395 79.912 639.931 81.768 643.835 84.328C647.739 86.888 649.691 90.952 649.691 96.52C649.691 102.408 647.771 106.696 643.931 109.384C640.091 112.072 635.035 113.416 628.763 113.416C624.283 113.416 620.283 112.552 616.763 110.824C613.243 109.16 610.491 106.888 608.507 104.008C606.587 101.064 605.627 97.864 605.627 94.408V93.064C607.611 92.808 609.787 92.68 612.155 92.68L617.147 92.776C618.171 92.84 619.675 92.872 621.659 92.872C621.659 93.384 621.819 94.024 622.139 94.792H623.579C623.579 97.032 625.019 98.152 627.899 98.152C630.523 98.152 631.835 96.872 631.835 94.312C631.835 93.352 631.323 92.68 630.299 92.296C629.339 91.848 627.771 91.4 625.595 90.952C622.843 90.44 620.731 89.864 619.259 89.224H619.355C615.451 87.88 612.347 85.704 610.043 82.696C607.739 79.624 606.587 76.456 606.587 73.192C606.587 70.184 607.547 67.336 609.467 64.648C611.451 61.96 614.043 60.136 617.243 59.176C619.419 58.536 622.747 58.216 627.227 58.216C631.515 58.216 635.035 58.536 637.787 59.176C640.539 59.816 642.779 61.224 644.507 63.4C648.347 66.536 650.267 71.304 650.267 77.704L649.499 78.664ZM639.035 60.328C635.579 59.56 631.643 59.176 627.227 59.176C614.107 59.176 607.547 63.848 607.547 73.192C607.547 76.072 608.411 78.728 610.139 81.16C611.867 83.528 614.395 85.288 617.723 86.44C619.259 87.144 621.691 87.816 625.019 88.456C627.771 89.096 629.755 89.736 630.971 90.376C632.187 91.016 632.795 92.104 632.795 93.64C632.795 95.56 632.379 96.968 631.547 97.864C630.715 98.696 629.499 99.112 627.899 99.112C626.107 99.112 624.507 98.632 623.099 97.672C621.691 96.712 620.923 95.432 620.795 93.832L609.755 93.736C608.283 93.736 607.227 93.8 606.587 93.928V94.408C606.587 99.336 608.443 103.272 612.155 106.216C615.867 109.096 620.763 110.536 626.843 110.536C632.667 110.536 637.435 109.352 641.147 106.984C644.859 104.552 646.715 100.424 646.715 94.6C646.715 91.272 645.947 88.616 644.411 86.632C642.875 84.648 640.731 83.176 637.979 82.216C635.291 81.256 631.675 80.424 627.131 79.72C625.659 79.208 624.539 78.472 623.771 77.512C623.003 76.552 622.619 75.528 622.619 74.44C622.619 73.352 623.035 72.328 623.867 71.368C624.763 70.344 625.979 69.832 627.515 69.832C628.987 69.832 630.395 70.376 631.739 71.464C633.083 72.552 633.755 73.736 633.755 75.016C633.755 75.4 633.723 75.656 633.659 75.784C635.643 76.168 637.819 76.36 640.187 76.36C642.811 76.36 645.211 76.168 647.387 75.784C647.387 72.136 646.715 68.968 645.371 66.28C644.027 63.528 641.915 61.544 639.035 60.328Z" fill="black"/>
<path d="M598.824 65.896C601.64 68.2 603.528 71.336 604.488 75.304C605.448 79.208 606.088 84.2 606.408 90.28C606.408 95.272 605.704 99.656 604.296 103.432C602.888 107.144 600.776 109.544 597.96 110.632C595.528 111.592 592.552 112.072 589.032 112.072C587.368 112.072 585.736 111.912 584.136 111.592C582.536 111.336 581.224 110.984 580.2 110.536L580.392 120.232C580.392 121.704 580.328 123.528 580.2 125.704L579.912 129.352V130.408C579.912 130.728 579.112 131.048 577.512 131.368C575.976 131.688 574.28 131.848 572.424 131.848C569.736 131.848 567.56 131.688 565.896 131.368V129.736L563.976 129.448V122.248C563.976 116.36 563.848 107.848 563.592 96.712C563.528 93.896 563.464 90.504 563.4 86.536C563.336 82.504 563.304 77.896 563.304 72.712C563.304 66.824 563.336 62.632 563.4 60.136L568.872 60.04C570.088 59.976 571.848 59.944 574.152 59.944C575.496 59.944 576.52 60.072 577.224 60.328C577.992 60.584 578.376 61.096 578.376 61.864V62.056C579.272 62.056 579.72 62.152 579.72 62.344C581.384 60.936 583.496 60.232 586.056 60.232C591.368 60.232 595.624 62.12 598.824 65.896ZM595.752 107.848C598.44 106.888 600.392 104.616 601.608 101.032C602.888 97.448 603.528 93.224 603.528 88.36C603.336 82.664 602.856 77.96 602.088 74.248C601.32 70.536 599.656 67.432 597.096 64.936C594.536 62.44 590.696 61.192 585.576 61.192C582.184 61.192 579.816 62.6 578.472 65.416C578.28 65.672 578.152 65.8 578.088 65.8C577.832 65.8 577.576 65.064 577.32 63.592C577.128 62.12 577.128 61.32 577.32 61.192C576.68 61.064 575.752 61 574.536 61L564.36 61.096C564.296 63.4 564.264 66.92 564.264 71.656C564.264 76.904 564.296 81.544 564.36 85.576C564.424 89.608 564.488 93 564.552 95.752C564.808 107.272 564.936 116.104 564.936 122.248V128.584C566.28 128.84 568.136 128.968 570.504 128.968C572.104 128.968 573.576 128.904 574.92 128.776C576.328 128.712 577.032 128.616 577.032 128.488V127.432L577.224 124.072C577.352 122.856 577.416 120.936 577.416 118.312V113.896C577.416 111.08 577.384 108.68 577.32 106.696C577.448 107.4 578.472 108.008 580.392 108.52C582.312 108.968 584.552 109.192 587.112 109.192C590.696 109.192 593.576 108.744 595.752 107.848ZM583.848 73.096C586.472 73.096 588.584 74.344 590.184 76.84C591.784 79.336 592.584 82.28 592.584 85.672C592.584 88.168 592.36 90.024 591.912 91.24C591.208 95.784 588.168 98.056 582.792 98.056C580.872 98.056 579.528 97.832 578.76 97.384C577.992 96.872 577.48 95.912 577.224 94.504C577.032 93.096 576.936 90.6 576.936 87.016C576.936 83.816 577.064 81.256 577.32 79.336C577.64 77.416 578.28 75.912 579.24 74.824C580.264 73.672 581.8 73.096 583.848 73.096ZM591.624 85.672C591.624 83.112 591.144 80.872 590.184 78.952C589.288 76.968 587.816 75.976 585.768 75.976C583.976 75.976 582.632 76.52 581.736 77.608C580.904 78.632 580.36 80.04 580.104 81.832C579.912 83.56 579.816 85.928 579.816 88.936C579.816 90.792 579.848 92.424 579.912 93.832C579.976 95.176 580.104 96.2 580.296 96.904C580.68 97.032 581.128 97.096 581.64 97.096C582.216 97.096 582.6 97.096 582.792 97.096C587.656 97.096 590.376 95.112 590.952 91.144L591.048 90.952C591.432 90.056 591.624 89 591.624 87.784C591.624 86.568 591.624 85.864 591.624 85.672Z" fill="black"/>
<path d="M560.368 63.016C560.496 64.04 560.56 64.84 560.56 65.416V66.376C560.496 68.104 560.464 70.6 560.464 73.864L560.56 84.616C560.624 87.048 560.656 90.664 560.656 95.464C560.656 99.24 560.56 103.112 560.368 107.08V107.752C560.368 109.096 560.272 110.088 560.08 110.728C559.888 111.368 559.312 111.784 558.352 111.976H557.008C556.112 111.976 554.96 111.912 553.552 111.784L550.768 111.688C550.32 111.688 549.648 111.752 548.752 111.88L546.64 111.976C545.616 111.72 544.944 111.08 544.624 110.056C543.792 109.736 543.28 109.384 543.088 109C539.76 111.048 536.464 112.072 533.2 112.072C529.808 112.072 526.8 110.6 524.176 107.656C521.616 104.712 519.632 101.032 518.224 96.616C516.88 92.136 516.208 87.752 516.208 83.464C516.208 78.6 517.04 74.44 518.704 70.984C520.368 67.464 522.64 64.808 525.52 63.016C528.464 61.224 531.76 60.328 535.408 60.328C537.2 60.328 538.576 60.456 539.536 60.712C540.56 60.968 541.488 61.608 542.32 62.632C542.384 62.312 542.448 61.8 542.512 61.096C542.576 60.392 542.736 59.944 542.992 59.752C543.248 59.56 543.664 59.464 544.24 59.464C544.816 59.464 545.328 59.528 545.776 59.656C546.288 59.72 546.768 59.752 547.216 59.752H548.08C549.744 59.752 552.912 59.912 557.584 60.232L558.448 61.096L558.544 62.152H559.504L560.368 63.016ZM547.024 60.712L544.432 60.616C543.792 60.616 543.408 61.032 543.28 61.864C543.152 62.632 543.088 63.752 543.088 65.224V65.704C542.512 64.296 541.776 63.272 540.88 62.632C539.984 61.992 538.992 61.608 537.904 61.48C536.816 61.352 535.28 61.288 533.296 61.288C530.288 61.352 527.536 62.376 525.04 64.36C522.608 66.28 520.688 68.904 519.28 72.232C517.872 75.56 517.168 79.304 517.168 83.464C517.168 87.24 517.68 91.112 518.704 95.08C519.728 99.048 521.296 102.408 523.408 105.16C525.584 107.848 528.208 109.192 531.28 109.192C533.456 109.192 535.696 108.68 538 107.656C540.368 106.568 542.352 105.224 543.952 103.624C543.952 104.008 543.888 104.552 543.76 105.256C543.632 105.896 543.568 106.472 543.568 106.984C543.568 108.072 543.952 108.776 544.72 109.096C545.232 109.096 545.936 109.032 546.832 108.904L548.848 108.808L552.016 108.904C553.424 109.032 554.448 109.096 555.088 109.096H556.24C556.752 108.968 557.072 108.712 557.2 108.328C557.392 107.88 557.488 107.272 557.488 106.504V105.16C557.744 101.384 557.872 97.192 557.872 92.584L557.776 82.024C557.648 77.288 557.584 73.704 557.584 71.272C557.584 68.264 557.616 65.992 557.68 64.456V63.496C557.68 62.984 557.616 62.216 557.488 61.192C555.696 61.064 552.56 60.904 548.08 60.712H547.024ZM538.48 74.152C540.08 74.152 541.2 74.312 541.84 74.632C542.544 74.888 542.992 75.496 543.184 76.456C543.376 77.352 543.472 78.888 543.472 81.064V86.344C543.472 88.648 543.344 90.44 543.088 91.72C542.896 93 542.352 93.992 541.456 94.696C540.624 95.4 539.312 95.752 537.52 95.752C534.896 95.752 532.816 94.76 531.28 92.776C529.744 90.792 528.976 88.328 528.976 85.384C528.976 83.272 529.168 81.576 529.552 80.296C529.936 78.568 530.896 77.128 532.432 75.976C533.968 74.76 535.984 74.152 538.48 74.152ZM532.432 82.504C532.048 83.784 531.856 85.384 531.856 87.304C531.856 92.296 533.744 94.792 537.52 94.792C539.12 94.792 540.272 94.44 540.976 93.736C541.68 93.032 542.096 92.072 542.224 90.856C542.416 89.64 542.512 87.784 542.512 85.288V82.792L542.608 79.912C542.608 78.888 542.448 78.152 542.128 77.704C541.872 77.256 541.296 77.032 540.4 77.032C538.16 77.032 536.368 77.544 535.024 78.568C533.68 79.592 532.816 80.872 532.432 82.408V82.504Z" fill="black"/>
<path d="M491.037 63.4C494.173 61.48 497.565 60.52 501.213 60.52C503.261 60.52 505.245 60.872 507.165 61.576C509.085 62.28 510.525 63.368 511.485 64.84L512.637 65.704C514.301 66.984 515.133 72.36 515.133 81.832C515.133 84.328 515.069 88.072 514.941 93.064C514.813 97.928 514.749 101.48 514.749 103.72C514.749 106.28 514.813 108.904 514.941 111.592C512.637 111.912 509.949 112.072 506.877 112.072H501.117C501.053 111.624 501.021 110.984 501.021 110.152H499.197C499.005 108.168 498.909 104.296 498.909 98.536V93.736C498.909 90.024 498.845 87.144 498.717 85.096C498.589 83.048 498.237 81.32 497.661 79.912C497.149 79.72 496.477 79.624 495.645 79.624C493.725 79.624 492.381 80.264 491.613 81.544C490.909 82.824 490.557 85.288 490.557 88.936C490.557 90.664 490.621 93.064 490.749 96.136C490.877 99.336 490.941 101.672 490.941 103.144C490.941 105.896 490.813 108.296 490.557 110.344V111.4C488.317 111.976 486.461 112.264 484.989 112.264C484.093 112.264 483.389 112.232 482.877 112.168L480.573 112.072H479.517C478.557 112.072 477.629 112.136 476.733 112.264V110.152L474.813 110.344L474.717 92.2C474.589 84.136 474.525 78.024 474.525 73.864C474.525 70.472 474.589 65.896 474.717 60.136C476.253 60.328 477.693 60.424 479.037 60.424C479.549 60.424 480.381 60.328 481.533 60.136C482.749 59.944 484.381 59.848 486.429 59.848C488.157 59.848 489.053 60.232 489.117 61C489.117 61.384 489.405 61.736 489.981 62.056C490.621 62.312 490.973 62.6 491.037 62.92V63.4ZM487.005 60.712C485.213 60.712 483.197 60.872 480.957 61.192C479.933 61.32 479.293 61.384 479.037 61.384H477.885C477.053 61.384 476.317 61.32 475.677 61.192C475.549 63.176 475.485 66.088 475.485 69.928V75.784C475.485 79.688 475.549 85.352 475.677 92.776L475.773 109.288C476.541 109.224 477.565 109.192 478.845 109.192L483.453 109.288C484.797 109.288 486.205 109.096 487.677 108.712V108.328C487.933 106.216 488.061 103.848 488.061 101.224C488.061 99.56 487.997 97.128 487.869 93.928C487.741 90.728 487.677 88.296 487.677 86.632C487.677 82.792 488.157 80.2 489.117 78.856C490.077 77.448 491.613 76.744 493.725 76.744C496.029 76.744 497.501 77.448 498.141 78.856C498.845 80.2 499.261 81.736 499.389 83.464C499.517 85.128 499.613 86.28 499.677 86.92C499.805 87.88 499.869 89.416 499.869 91.528V94.888V101.992V105.064C499.869 106.984 499.933 108.36 500.061 109.192L505.629 109.288C507.933 109.288 510.077 109.128 512.061 108.808C511.933 106.376 511.869 104.36 511.869 102.76C511.869 100.52 511.933 96.904 512.061 91.912C512.189 86.664 512.253 82.824 512.253 80.392C512.253 75.976 512.093 72.424 511.773 69.736C511.453 66.984 510.877 65.224 510.045 64.456C507.869 62.472 504.893 61.48 501.117 61.48C499.069 61.48 497.245 61.8 495.645 62.44C494.045 63.08 492.541 63.816 491.133 64.648C489.725 65.416 488.797 65.928 488.349 66.184L488.445 63.976C488.445 61.8 487.965 60.712 487.005 60.712Z" fill="black"/>
<path d="M447.144 67.432C448.808 77.416 450.248 84.872 451.464 89.8L452.328 82.696C452.456 81.864 452.744 79.656 453.192 76.072C453.64 72.488 454.152 69.352 454.728 66.664C455.304 63.912 455.944 61.736 456.648 60.136L461.256 60.04C462.28 59.976 463.816 59.944 465.864 59.944C466.504 59.944 468.744 60.04 472.584 60.232C472.456 60.552 472.296 61.16 472.104 62.056L474.504 62.152C471.496 73.928 469.032 84.2 467.112 92.968C465.512 100.328 463.688 106.44 461.64 111.304C459.656 116.232 456.392 120.392 451.848 123.784C447.368 127.24 441.256 128.968 433.512 128.968H432.456C431.432 128.968 430.472 128.904 429.576 128.776C429.512 128.52 429.448 128.2 429.384 127.816C429.32 127.496 429.16 127.24 428.904 127.048C428.648 126.92 428.232 126.856 427.656 126.856C426.824 124.04 426.408 121.256 426.408 118.504C426.408 116.2 426.6 114.12 426.984 112.264L431.208 112.36C431.848 112.424 432.776 112.456 433.992 112.456C435.784 112.456 437.16 112.168 438.12 111.592C439.08 111.016 439.56 109.928 439.56 108.328C439.56 107.752 439.528 107.24 439.464 106.792V106.888C437.288 94.984 433.448 79.272 427.944 59.752C429.928 60.072 431.56 60.232 432.84 60.232L436.488 60.136H439.56C441.416 60.136 442.76 60.2 443.592 60.328L444.456 61.096C444.456 61.544 444.52 61.864 444.648 62.056C444.776 62.184 445.064 62.248 445.512 62.248L446.376 63.016L447.144 67.432ZM433.512 61.192H431.784C430.696 61.192 429.864 61.128 429.288 61C429.992 63.368 430.536 65.416 430.92 67.144C433.224 75.464 435.112 82.664 436.584 88.744C438.12 94.76 439.4 100.744 440.424 106.696C440.488 107.144 440.52 107.72 440.52 108.424C440.52 110.344 439.912 111.656 438.696 112.36C437.544 113.064 435.944 113.416 433.896 113.416C432.616 113.416 431.624 113.384 430.92 113.32L427.848 113.224C427.528 114.952 427.368 116.712 427.368 118.504C427.368 121.448 427.72 123.944 428.424 125.992C429.128 126.056 430.184 126.088 431.592 126.088C439.4 126.088 445.48 124.392 449.832 121C454.248 117.672 457.384 113.64 459.24 108.904C461.096 104.104 462.824 97.896 464.424 90.28C465.128 86.824 465.736 84.168 466.248 82.312L467.112 78.76C468.584 72.232 469.992 66.344 471.336 61.096C470.248 61.032 468.744 61 466.824 61L458.568 61.096H457.32C456.616 62.824 456.008 65.096 455.496 67.912C455.048 70.664 454.536 74.44 453.96 79.24C453.32 83.912 452.808 87.432 452.424 89.8C452.04 92.168 451.56 94.184 450.984 95.848C449.384 91.432 447.336 82.344 444.84 68.584L443.496 61.288C441.832 61.16 440.52 61.096 439.56 61.096L433.512 61.192Z" fill="black"/>
<path d="M428.87 66.376C426.054 66.824 423.43 67.048 420.998 67.048C417.99 67.048 415.366 66.728 413.126 66.088C413.19 65.896 413.222 65.416 413.222 64.648C412.326 64.52 411.654 64.36 411.206 64.168C411.27 63.976 411.302 63.56 411.302 62.92C411.302 61.576 410.982 60.68 410.342 60.232C409.702 59.784 408.806 59.56 407.654 59.56C406.374 59.56 405.286 59.944 404.39 60.712C403.494 61.48 403.046 62.6 403.046 64.072C403.046 65.096 403.27 65.768 403.718 66.088C404.166 66.344 404.71 66.504 405.35 66.568C405.99 66.632 406.438 66.696 406.694 66.76C410.662 67.336 414.406 68.872 417.926 71.368C421.51 73.8 424.358 76.776 426.47 80.296C428.646 83.752 429.734 87.272 429.734 90.856C429.734 95.144 428.774 98.92 426.854 102.184C424.934 105.448 422.374 107.944 419.174 109.672C416.038 111.464 412.614 112.36 408.902 112.36C404.678 112.36 400.518 111.4 396.422 109.48C392.326 107.624 388.966 105.064 386.342 101.8C383.782 98.472 382.502 94.856 382.502 90.952L382.598 89.704V88.36C384.326 88.104 386.182 87.976 388.166 87.976L393.734 88.072C395.014 88.136 396.838 88.168 399.206 88.168C399.206 88.872 399.302 89.512 399.494 90.088H401.126C401.126 91.688 401.478 92.808 402.182 93.448C402.886 94.024 403.942 94.312 405.35 94.312C406.758 94.312 407.942 93.928 408.902 93.16C409.862 92.392 410.342 91.304 410.342 89.896C410.342 87.912 409.606 86.536 408.134 85.768C406.662 85 405.158 84.488 403.622 84.232C402.086 83.912 401.094 83.72 400.646 83.656L399.206 83.368C397.286 82.984 395.686 82.376 394.406 81.544C393.126 80.648 391.75 79.464 390.278 77.992C385.798 73.704 383.558 68.616 383.558 62.728C383.558 58.76 384.55 55.112 386.534 51.784C388.518 48.456 391.206 45.832 394.598 43.912C398.054 41.928 401.862 40.936 406.022 40.936C410.31 40.936 414.278 41.736 417.926 43.336C421.638 44.936 424.614 47.24 426.854 50.248C429.094 53.256 430.214 56.808 430.214 60.904C430.214 62.504 430.022 64.328 429.638 66.376H428.87ZM426.854 63.496C427.174 61.704 427.334 60.2 427.334 58.984C427.334 53.288 425.286 49.032 421.19 46.216C417.158 43.336 412.102 41.896 406.022 41.896C401.99 41.896 398.342 42.824 395.078 44.68C391.814 46.536 389.222 49.064 387.302 52.264C385.446 55.464 384.518 58.952 384.518 62.728C384.518 64.968 384.998 67.4 385.958 70.024C386.918 72.584 388.39 74.856 390.374 76.84C392.358 78.824 394.726 80.04 397.478 80.488C398.054 80.616 399.718 80.968 402.47 81.544C405.222 82.056 407.366 83.016 408.902 84.424C410.502 85.832 411.302 87.656 411.302 89.896C411.302 91.688 410.726 93.032 409.574 93.928C408.422 94.824 407.014 95.272 405.35 95.272C403.494 95.272 401.862 94.76 400.454 93.736C399.11 92.648 398.374 91.112 398.246 89.128C396.262 89.128 394.758 89.096 393.734 89.032L388.55 88.936C386.758 88.936 385.094 89.032 383.558 89.224V90.856C383.558 94.632 384.71 97.928 387.014 100.744C389.318 103.56 392.262 105.736 395.846 107.272C399.494 108.744 403.238 109.48 407.078 109.48C410.598 109.48 413.862 108.712 416.87 107.176C419.878 105.576 422.278 103.24 424.07 100.168C425.926 97.032 426.854 93.32 426.854 89.032C426.854 85.512 425.926 82.216 424.07 79.144C422.214 76.008 419.718 73.416 416.582 71.368C413.51 69.32 410.182 68.104 406.598 67.72C402.31 67.272 400.166 65.384 400.166 62.056C400.166 60.328 400.71 59.016 401.798 58.12C402.886 57.16 404.198 56.68 405.734 56.68C407.526 56.68 409.094 57.192 410.438 58.216C411.782 59.24 412.454 60.584 412.454 62.248C412.454 62.824 412.422 63.208 412.358 63.4C414.47 63.976 416.678 64.264 418.982 64.264C420.966 64.264 423.558 64.008 426.758 63.496H426.854Z" fill="black"/>
<path d="M357.606 89.608C357.606 91.272 357.702 92.648 357.894 93.736C358.15 94.76 358.63 95.88 359.334 97.096V97.288C360.166 97.736 361.19 97.96 362.406 97.96C363.75 97.96 364.87 97.352 365.766 96.136C366.662 94.856 367.11 92.968 367.11 90.472V89.512C368.518 89.64 369.574 89.704 370.278 89.704L373.638 89.608C374.342 89.544 375.43 89.512 376.902 89.512C377.99 89.512 379.43 89.672 381.222 89.992L381.126 91.624L383.142 91.912C383.142 98.824 382.374 103.784 380.838 106.792C379.366 109.8 377.446 111.592 375.078 112.168C372.774 112.808 369.222 113.128 364.422 113.128C360.582 113.128 357.51 112.84 355.206 112.264C352.966 111.752 351.046 110.536 349.446 108.616C346.502 106.184 344.326 102.696 342.918 98.152C341.51 93.608 340.806 88.68 340.806 83.368C340.806 77.16 341.542 72.072 343.014 68.104C344.358 65.032 346.694 62.696 350.022 61.096C353.35 59.432 357.062 58.6 361.158 58.6C366.086 58.6 370.214 59.656 373.542 61.768C376.934 63.88 379.43 66.728 381.03 70.312C382.694 73.832 383.526 77.704 383.526 81.928C383.526 82.312 383.43 83.944 383.238 86.824C382.022 87.144 378.79 87.432 373.542 87.688C368.358 87.944 363.75 88.072 359.718 88.072C358.758 88.072 358.054 88.04 357.606 87.976V89.608ZM354.726 84.904C355.494 85.096 357.702 85.192 361.35 85.192C364.87 85.192 368.678 85.096 372.774 84.904C376.87 84.648 379.43 84.392 380.454 84.136C380.582 82.216 380.646 80.84 380.646 80.008C380.646 73.608 379.206 68.616 376.326 65.032C373.51 61.384 368.454 59.56 361.158 59.56C357.318 59.56 353.766 60.36 350.502 61.96C347.302 63.496 345.094 65.64 343.878 68.392C342.406 72.36 341.67 77.672 341.67 84.328C341.67 90.984 342.79 96.744 345.03 101.608C347.27 106.472 350.758 109.256 355.494 109.96L359.718 110.056C361.894 110.184 363.59 110.248 364.806 110.248C367.814 110.248 370.374 109.928 372.486 109.288C374.662 108.648 376.358 107.464 377.574 105.736C378.406 105.032 378.982 103.56 379.302 101.32C379.622 99.016 379.942 95.496 380.262 90.76C379.302 90.568 378.054 90.472 376.518 90.472L372.774 90.568C372.006 90.632 370.95 90.664 369.606 90.664C368.838 90.664 368.358 90.632 368.166 90.568V91.336C368.166 93.832 367.59 95.72 366.438 97C365.35 98.28 364.006 98.92 362.406 98.92C357.478 98.92 354.918 94.824 354.726 86.632V84.904ZM370.086 77.32C370.086 77.512 369.862 77.608 369.414 77.608C369.094 77.608 368.454 77.576 367.494 77.512C366.534 77.448 365.382 77.416 364.038 77.416L357.798 77.512C356.582 77.512 355.782 77.448 355.398 77.32C355.014 77.192 354.822 76.904 354.822 76.456C354.822 71.528 357.542 69.064 362.982 69.064C364.198 69.064 365.318 69.384 366.342 70.024C367.494 70.6 368.39 71.464 369.03 72.616C369.734 73.768 370.086 74.984 370.086 76.264V77.32ZM367.782 72.712C366.95 72.2 365.99 71.944 364.902 71.944C362.662 71.944 361.03 72.328 360.006 73.096C359.046 73.864 358.374 75.016 357.99 76.552L359.814 76.456H364.038L368.166 76.552L369.126 76.648V76.264C369.126 74.792 368.71 73.64 367.878 72.808L367.782 72.712Z" fill="black"/>
<path d="M322.643 108.616C319.251 110.472 315.891 111.4 312.563 111.4C310.515 111.4 308.467 111.048 306.419 110.344C304.371 109.704 302.995 108.68 302.291 107.272C300.947 106.184 299.987 104.328 299.411 101.704C298.899 99.08 298.643 95.208 298.643 90.088C298.643 87.592 298.707 83.848 298.835 78.856C298.963 73.992 299.027 70.44 299.027 68.2C299.027 65.64 298.963 63.016 298.835 60.328C301.075 60.008 303.699 59.848 306.707 59.848H312.659C312.659 60.68 312.691 61.32 312.755 61.768H314.579C314.771 63.752 314.867 67.624 314.867 73.384V78.184C314.867 81.896 314.931 84.776 315.059 86.824C315.187 88.808 315.571 90.568 316.211 92.104C317.107 92.232 317.747 92.296 318.131 92.296C319.923 92.296 321.203 91.72 321.971 90.568C322.803 89.416 323.219 87.272 323.219 84.136C323.219 82.6 323.155 80.168 323.027 76.84C322.835 74.408 322.739 71.912 322.739 69.352C322.739 66.088 322.899 63.464 323.219 61.48V60.52C325.075 60.008 326.899 59.752 328.691 59.752L333.203 59.848H334.259C335.219 59.848 336.147 59.784 337.043 59.656V61.768L338.963 61.576L339.059 79.72C339.187 87.784 339.251 93.896 339.251 98.056C339.251 101.448 339.187 106.024 339.059 111.784C335.987 111.592 334.547 111.496 334.739 111.496C334.163 111.496 333.267 111.592 332.051 111.784C330.835 111.976 329.267 112.072 327.347 112.072C326.323 112.072 325.587 111.944 325.139 111.688C324.755 111.432 324.563 110.92 324.563 110.152C323.475 110.088 322.867 109.704 322.739 109L322.643 108.616ZM324.755 109.288C326.611 109.288 328.659 109.128 330.899 108.808C331.923 108.68 332.563 108.616 332.819 108.616C333.011 108.616 334.131 108.68 336.179 108.808C336.307 102.152 336.371 97.288 336.371 94.216C336.371 90.312 336.307 84.648 336.179 77.224L336.083 60.712C335.315 60.776 334.291 60.808 333.011 60.808L328.307 60.712C327.027 60.712 325.651 60.904 324.179 61.288V61.672C323.859 63.656 323.699 66.088 323.699 68.968C323.699 70.568 323.763 73.032 323.891 76.36C324.083 78.856 324.179 81.352 324.179 83.848C324.179 87.432 323.667 89.896 322.643 91.24C321.683 92.584 320.179 93.256 318.131 93.256C316.339 93.256 315.027 92.808 314.195 91.912C313.363 90.952 312.851 89.864 312.659 88.648C312.467 87.432 312.307 85.576 312.179 83.08C312.051 82.12 311.987 80.584 311.987 78.472V75.208V68.008V64.936C311.987 63.016 311.923 61.64 311.795 60.808L306.227 60.712C303.923 60.712 301.779 60.872 299.795 61.192C299.859 62.408 299.891 64.424 299.891 67.24C299.891 69.416 299.827 73.064 299.699 78.184C299.571 83.304 299.507 87.144 299.507 89.704C299.507 98.984 300.275 104.264 301.811 105.544C303.987 107.528 306.931 108.52 310.643 108.52C313.011 108.52 315.027 108.168 316.691 107.464C318.355 106.76 320.627 105.544 323.507 103.816L323.411 106.12C323.411 108.232 323.859 109.288 324.755 109.288Z" fill="black"/>
<path d="M295.783 62.056C296.039 69.544 296.167 78.568 296.167 89.128C296.167 99.048 296.007 107.688 295.687 115.048V117.352C295.687 122.344 294.343 125.8 291.655 127.72C288.967 129.704 286.215 130.824 283.399 131.08C282.503 131.208 281.703 131.272 280.999 131.272C276.967 131.272 273.575 131.048 270.823 130.6C268.135 130.216 265.575 129.32 263.143 127.912C260.711 126.504 258.535 124.328 256.615 121.384C256.103 120.68 255.719 119.592 255.463 118.12C255.207 116.712 255.079 115.336 255.079 113.992C255.079 113.224 255.111 112.68 255.175 112.36C256.711 111.72 258.727 111.4 261.223 111.4C261.543 111.4 262.247 111.4 263.335 111.4C264.423 111.4 265.351 111.464 266.119 111.592C263.879 111.016 261.767 109.992 259.783 108.52C257.799 107.048 256.423 105.384 255.655 103.528V103.624C254.119 100.68 253.191 96.808 252.871 92.008C252.871 86.312 253.159 81.384 253.735 77.224C254.375 73 255.911 69.256 258.343 65.992C260.839 62.664 264.647 60.776 269.767 60.328C271.495 60.328 273.159 60.584 274.759 61.096C276.359 61.544 277.671 62.28 278.695 63.304C278.695 62.152 278.919 61.16 279.367 60.328C281.671 60.072 283.751 59.944 285.607 59.944C287.271 59.944 288.551 59.976 289.447 60.04L293.863 60.136L293.959 62.056H295.783ZM292.807 114.088C292.807 109.416 292.903 104.84 293.095 100.36C293.223 94.472 293.287 90.088 293.287 87.208C293.287 77.288 293.159 68.584 292.903 61.096L287.911 61C286.759 60.936 285.063 60.904 282.823 60.904C280.711 60.904 279.655 61.448 279.655 62.536L279.751 64.168V65.032C279.751 65.608 279.687 65.896 279.559 65.896L279.367 65.8C278.663 64.264 277.575 63.144 276.103 62.44C274.695 61.672 272.999 61.288 271.015 61.288C265.575 61.288 261.607 62.888 259.111 66.088C256.615 69.224 255.111 72.808 254.599 76.84C254.087 80.808 253.831 85.832 253.831 91.912C254.023 94.216 254.311 96.264 254.695 98.056C255.079 99.784 255.687 101.48 256.519 103.144C258.503 107.176 262.663 109.192 268.999 109.192C269.511 109.128 270.311 109.096 271.399 109.096C273.575 109.032 275.303 108.872 276.583 108.616C277.927 108.296 279.047 107.656 279.943 106.696C279.879 107.144 279.847 107.72 279.847 108.424L279.943 110.728C279.943 113.352 279.399 115.304 278.311 116.584C277.287 117.928 275.879 118.6 274.087 118.6C272.487 118.6 271.111 118.088 269.959 117.064C268.871 116.104 268.327 114.728 268.327 112.936C266.279 112.616 263.623 112.456 260.359 112.456C258.951 112.456 257.863 112.552 257.095 112.744C256.327 112.936 255.943 113.352 255.943 113.992C255.943 118.28 257.415 121.704 260.359 124.264C263.367 126.888 267.047 128.2 271.399 128.2L279.367 128.296C280.455 128.296 281.095 128.264 281.287 128.2C283.911 127.88 286.471 126.92 288.967 125.32C291.527 123.784 292.807 120.936 292.807 116.776V114.088ZM273.607 73.096C276.295 73.096 278.087 74.376 278.983 76.936C279.943 79.432 280.423 82.696 280.423 86.728L280.327 91.816C280.135 93.352 279.879 94.536 279.559 95.368C279.303 96.2 278.727 96.904 277.831 97.48C276.999 97.992 275.751 98.248 274.087 98.248C271.143 98.248 268.839 97.16 267.175 94.984C265.511 92.808 264.679 90.184 264.679 87.112V84.424C264.679 82.696 265.031 80.968 265.735 79.24C266.503 77.448 267.559 75.976 268.903 74.824C270.247 73.672 271.815 73.096 273.607 73.096ZM279.367 91.72C279.367 89.16 279.271 86.472 279.079 83.656C278.887 80.776 278.567 78.408 278.119 76.552C277.351 76.168 276.487 75.976 275.527 75.976C273.671 75.976 272.231 76.456 271.207 77.416L271.399 77.32C270.055 78.856 269.063 80.424 268.423 82.024C267.847 83.56 267.559 85.352 267.559 87.4V89.032C267.559 91.464 268.007 93.448 268.903 94.984C269.863 96.456 271.623 97.192 274.183 97.192C275.655 97.192 276.711 97 277.351 96.616C278.055 96.232 278.503 95.688 278.695 94.984C278.951 94.28 279.175 93.192 279.367 91.72ZM268.999 111.976C269.127 112.04 269.223 112.296 269.287 112.744C269.351 113.256 269.415 113.576 269.479 113.704L271.207 113.992C271.207 115.272 271.399 116.2 271.783 116.776C272.167 117.352 272.935 117.64 274.087 117.64C275.175 117.64 276.231 117.192 277.255 116.296C278.343 115.4 278.887 114.248 278.887 112.84L278.983 111.304C278.023 111.624 276.967 111.816 275.815 111.88C274.727 111.944 274.055 111.976 273.799 111.976C272.519 111.976 271.591 112.008 271.015 112.072C270.119 112.072 269.447 112.04 268.999 111.976Z" fill="black"/>
<path d="M251.087 63.016C251.215 64.04 251.279 64.84 251.279 65.416V66.376C251.215 68.104 251.183 70.6 251.183 73.864L251.279 84.616C251.343 87.048 251.375 90.664 251.375 95.464C251.375 99.24 251.279 103.112 251.087 107.08V107.752C251.087 109.096 250.991 110.088 250.799 110.728C250.607 111.368 250.031 111.784 249.071 111.976H247.727C246.831 111.976 245.679 111.912 244.271 111.784L241.487 111.688C241.039 111.688 240.367 111.752 239.471 111.88L237.359 111.976C236.335 111.72 235.663 111.08 235.343 110.056C234.511 109.736 233.999 109.384 233.807 109C230.479 111.048 227.183 112.072 223.919 112.072C220.527 112.072 217.519 110.6 214.895 107.656C212.335 104.712 210.351 101.032 208.943 96.616C207.599 92.136 206.927 87.752 206.927 83.464C206.927 78.6 207.759 74.44 209.423 70.984C211.087 67.464 213.359 64.808 216.239 63.016C219.183 61.224 222.479 60.328 226.127 60.328C227.919 60.328 229.295 60.456 230.255 60.712C231.279 60.968 232.207 61.608 233.039 62.632C233.103 62.312 233.167 61.8 233.231 61.096C233.295 60.392 233.455 59.944 233.711 59.752C233.967 59.56 234.383 59.464 234.959 59.464C235.535 59.464 236.047 59.528 236.495 59.656C237.007 59.72 237.487 59.752 237.935 59.752H238.799C240.463 59.752 243.631 59.912 248.303 60.232L249.167 61.096L249.263 62.152H250.223L251.087 63.016ZM237.743 60.712L235.151 60.616C234.511 60.616 234.127 61.032 233.999 61.864C233.871 62.632 233.807 63.752 233.807 65.224V65.704C233.231 64.296 232.495 63.272 231.599 62.632C230.703 61.992 229.711 61.608 228.623 61.48C227.535 61.352 225.999 61.288 224.015 61.288C221.007 61.352 218.255 62.376 215.759 64.36C213.327 66.28 211.407 68.904 209.999 72.232C208.591 75.56 207.887 79.304 207.887 83.464C207.887 87.24 208.399 91.112 209.423 95.08C210.447 99.048 212.015 102.408 214.127 105.16C216.303 107.848 218.927 109.192 221.999 109.192C224.175 109.192 226.415 108.68 228.719 107.656C231.087 106.568 233.071 105.224 234.671 103.624C234.671 104.008 234.607 104.552 234.479 105.256C234.351 105.896 234.287 106.472 234.287 106.984C234.287 108.072 234.671 108.776 235.439 109.096C235.951 109.096 236.655 109.032 237.551 108.904L239.567 108.808L242.735 108.904C244.143 109.032 245.167 109.096 245.807 109.096H246.959C247.471 108.968 247.791 108.712 247.919 108.328C248.111 107.88 248.207 107.272 248.207 106.504V105.16C248.463 101.384 248.591 97.192 248.591 92.584L248.495 82.024C248.367 77.288 248.303 73.704 248.303 71.272C248.303 68.264 248.335 65.992 248.399 64.456V63.496C248.399 62.984 248.335 62.216 248.207 61.192C246.415 61.064 243.279 60.904 238.799 60.712H237.743ZM229.199 74.152C230.799 74.152 231.919 74.312 232.559 74.632C233.263 74.888 233.711 75.496 233.903 76.456C234.095 77.352 234.191 78.888 234.191 81.064V86.344C234.191 88.648 234.063 90.44 233.807 91.72C233.615 93 233.071 93.992 232.175 94.696C231.343 95.4 230.031 95.752 228.239 95.752C225.615 95.752 223.535 94.76 221.999 92.776C220.463 90.792 219.695 88.328 219.695 85.384C219.695 83.272 219.887 81.576 220.271 80.296C220.655 78.568 221.615 77.128 223.151 75.976C224.687 74.76 226.703 74.152 229.199 74.152ZM223.151 82.504C222.767 83.784 222.575 85.384 222.575 87.304C222.575 92.296 224.463 94.792 228.239 94.792C229.839 94.792 230.991 94.44 231.695 93.736C232.399 93.032 232.815 92.072 232.943 90.856C233.135 89.64 233.231 87.784 233.231 85.288V82.792L233.327 79.912C233.327 78.888 233.167 78.152 232.847 77.704C232.591 77.256 232.015 77.032 231.119 77.032C228.879 77.032 227.087 77.544 225.743 78.568C224.399 79.592 223.535 80.872 223.151 82.408V82.504Z" fill="black"/>
<path d="M188.191 61.96C189.023 62.088 189.535 62.216 189.727 62.344C193.375 61.192 196.863 60.616 200.191 60.616C201.791 60.616 203.167 60.712 204.319 60.904C205.471 61.032 206.047 61.16 206.047 61.288V62.728C207.327 62.92 207.967 63.08 207.967 63.208L207.871 71.368C207.807 72.456 207.775 73.864 207.775 75.592C207.775 76.616 207.871 78.568 208.063 81.448L205.855 80.68L205.951 80.776L204.799 80.392L204.895 80.488C202.335 79.848 200.607 79.464 199.711 79.336C198.879 79.208 198.143 79.144 197.503 79.144C196.863 79.144 196.415 79.144 196.159 79.144C193.983 79.144 192.351 79.592 191.263 80.488C190.239 81.32 189.727 82.856 189.727 85.096C189.983 92.968 190.111 101.352 190.111 110.248V111.4C188.063 111.976 186.175 112.264 184.447 112.264C183.423 112.264 182.655 112.232 182.143 112.168L179.263 112.072H178.111C177.151 112.072 176.223 112.136 175.327 112.264V110.152L173.407 110.344L173.311 92.2C173.183 84.136 173.119 78.024 173.119 73.864C173.119 70.472 173.183 65.896 173.311 60.136C174.847 60.328 176.287 60.424 177.631 60.424C178.143 60.424 178.975 60.36 180.127 60.232C181.343 60.04 182.975 59.944 185.023 59.944C187.135 59.944 188.191 60.328 188.191 61.096V61.96ZM187.231 61.096C187.231 60.968 186.847 60.904 186.079 60.904C183.967 60.904 182.175 61 180.703 61.192C179.231 61.32 178.207 61.384 177.631 61.384H176.479C175.647 61.384 174.911 61.32 174.271 61.192C174.143 63.176 174.079 66.088 174.079 69.928V75.784C174.079 79.688 174.143 85.352 174.271 92.776L174.367 109.288C175.135 109.224 176.191 109.192 177.535 109.192L182.719 109.288C184.255 109.288 185.759 109.096 187.231 108.712V108.328C187.231 104.936 187.167 100.552 187.039 95.176C186.911 89.8 186.847 85.608 186.847 82.6C186.847 80.232 187.455 78.6 188.671 77.704C189.951 76.744 191.807 76.264 194.239 76.264C194.623 76.264 195.167 76.264 195.871 76.264C196.639 76.2 197.503 76.264 198.463 76.456C199.487 76.584 200.735 76.84 202.207 77.224C202.527 77.352 202.847 77.48 203.167 77.608C203.551 77.672 203.903 77.768 204.223 77.896L205.087 78.184C205.023 77.48 204.991 76.456 204.991 75.112V71.56L205.087 61.288C205.087 61.16 204.415 61.096 203.071 61.096C200.639 61.096 197.759 61.448 194.431 62.152C191.167 62.792 188.799 63.528 187.327 64.36C187.327 63.912 187.295 63.592 187.231 63.4C187.231 63.208 187.231 63.048 187.231 62.92V61.096Z" fill="black"/>
<path d="M172.344 63.88C172.344 67.976 171.224 71.816 168.984 75.4C166.744 78.92 163.768 81.736 160.056 83.848C156.408 85.896 152.568 86.92 148.536 86.92C147.448 86.92 146.648 86.888 146.136 86.824V90.856C146.136 97 146.232 103.656 146.424 110.824C145.784 110.824 144.888 110.92 143.736 111.112C143.288 111.176 142.296 111.272 140.76 111.4C139.288 111.592 137.88 111.688 136.536 111.688C133.656 111.688 130.872 111.528 128.184 111.208C128.184 110.312 128.056 109.768 127.8 109.576C127.544 109.384 127.032 109.288 126.264 109.288C126.008 103.08 125.88 92.136 125.88 76.456V64.84C125.88 54.088 125.784 46.312 125.592 41.512C130.456 40.168 135.448 39.496 140.568 39.496C145.88 39.496 150.872 40.392 155.544 42.184C160.28 43.912 164.184 46.6 167.256 50.248C170.328 53.896 172.024 58.408 172.344 63.784V63.88ZM169.464 61.864C169.08 54.44 166.104 49.032 160.536 45.64C154.968 42.184 148.28 40.456 140.472 40.456C135.928 40.456 131.288 41.064 126.552 42.28C126.808 49.448 126.936 60.808 126.936 76.36V93.256C126.936 98.632 127.032 103.688 127.224 108.424C128.952 108.68 131.416 108.808 134.616 108.808C138.84 108.808 141.72 108.552 143.256 108.04L143.544 107.848C143.352 101.64 143.256 95.752 143.256 90.184V86.44C143.256 85.224 143.224 84.328 143.16 83.752C144.312 83.944 145.464 84.04 146.616 84.04C150.2 84.04 153.752 83.112 157.272 81.256C160.856 79.4 163.768 76.872 166.008 73.672C168.312 70.472 169.464 67.016 169.464 63.304V61.864ZM155.64 63.4C155.64 66.216 154.552 68.008 152.376 68.776C150.264 69.544 147.416 69.96 143.832 70.024L141.72 70.12H141.432C140.92 68.52 140.664 65.896 140.664 62.248C140.664 59.24 140.632 57.064 140.568 55.72C140.952 55.336 142.296 55.144 144.6 55.144C147.8 55.144 150.488 56.04 152.664 57.832C153.624 58.408 154.36 59.208 154.872 60.232C155.384 61.192 155.64 62.248 155.64 63.4ZM146.52 58.024C145.304 58.024 144.28 58.152 143.448 58.408C143.512 59.368 143.544 60.744 143.544 62.536V65.32V66.952C143.544 67.912 143.608 68.616 143.736 69.064H144.216C147.288 69.064 149.784 68.712 151.704 68.008C153.688 67.24 154.68 65.672 154.68 63.304C154.68 61.448 153.848 60.104 152.184 59.272C150.52 58.44 148.632 58.024 146.52 58.024Z" fill="black"/>
<path d="M49.6787 52.262C62.2387 39.8059 81.5899 38.715 95.3398 48.8488L81.1805 62.8909C77.7804 61.2498 74.4178 61.2237 72.4658 63.1595C69.5214 66.0798 70.9034 72.3555 75.5528 77.1767C80.2022 81.9977 86.3585 83.5388 89.3031 80.6188C91.2835 78.6548 91.3046 75.1736 89.6931 71.6373L103.793 57.6539C113.378 71.8094 111.842 91.3208 99.3211 103.738C86.8 116.156 67.53 117.278 53.7882 107.245L66.7776 94.3631C70.228 96.0757 73.6605 96.1318 75.6409 94.1679C78.5853 91.2476 77.2031 84.9718 72.5539 80.1507C67.9045 75.3296 61.7483 73.7886 58.8036 76.7086C56.8518 78.6444 56.8025 82.0542 58.3446 85.5378L45.2965 98.4779C35.6124 84.312 37.1188 64.718 49.6787 52.262Z" fill="black" stroke="black"/>
<path d="M47.6787 51.262C60.2387 38.8059 79.5899 37.715 93.3398 47.8488L79.1805 61.8909C75.7804 60.2498 72.4178 60.2237 70.4658 62.1595C67.5214 65.0798 68.9034 71.3555 73.5528 76.1767C78.2022 80.9977 84.3585 82.5388 87.3031 79.6188C89.2835 77.6548 89.3046 74.1736 87.6931 70.6373L101.793 56.6539C111.378 70.8094 109.842 90.3208 97.3211 102.738C84.8 115.156 65.53 116.278 51.7882 106.245L64.7776 93.3631C68.228 95.0757 71.6605 95.1318 73.6409 93.1679C76.5853 90.2476 75.2031 83.9718 70.5539 79.1507C65.9045 74.3296 59.7483 72.7886 56.8036 75.7086C54.8518 77.6444 54.8025 81.0542 56.3446 84.5378L43.2965 97.4779C33.6124 83.312 35.1188 63.718 47.6787 51.262Z" fill="#F64200" stroke="black"/>
</svg>
